<svg width="18" height="18" viewBox="0 0 18 18" fill="none" xmlns="http://www.w3.org/2000/svg">
<path d="M9 4H9.5C10.3284 4 11 4.67157 11 5.5C11 5.77614 10.7761 6 10.5 6C10.2239 6 10 5.77614 10 5.5C10 5.22386 9.77614 5 9.5 5H5.5C5.22386 5 5 5.22386 5 5.5V6.5C5 6.77614 5.22386 7 5.5 7H9.5C10.3284 7 11 7.67157 11 8.5V9.5C11 10.3284 10.3284 11 9.5 11H9V11.5C9 11.7761 8.77614 12 8.5 12C8.22386 12 8 11.7761 8 11.5V11H7V11.5C7 11.7761 6.77614 12 6.5 12C6.22386 12 6 11.7761 6 11.5V11H5.5C4.67157 11 4 10.3284 4 9.5C4 9.22386 4.22386 9 4.5 9C4.77614 9 5 9.22386 5 9.5C5 9.77614 5.22386 10 5.5 10H9.5C9.77614 10 10 9.77614 10 9.5V8.5C10 8.22386 9.77614 8 9.5 8H5.5C4.67157 8 4 7.32843 4 6.5V5.5C4 4.67157 4.67157 4 5.5 4H6V3.5C6 3.22386 6.22386 3 6.5 3C6.77614 3 7 3.22386 7 3.5V4H8V3.5C8 3.22386 8.22386 3 8.5 3C8.77614 3 9 3.22386 9 3.5V4ZM14 14V2.5C14 1.67157 13.3284 1 12.5 1H2.5C1.67157 1 1 1.67157 1 2.5V16C1 16.5523 1.44772 17 2 17C2.55228 17 3 16.5523 3 16V14.5C3 14.2239 3.22386 14 3.5 14H14ZM15 14H17.5C17.7761 14 18 14.2239 18 14.5V15.5C18 16.8807 16.8807 18 15.5 18H2C0.89543 18 0 17.1046 0 16V2.5C0 1.11929 1.11929 0 2.5 0H12.5C13.8807 0 15 1.11929 15 2.5V14ZM15.5 17C16.3284 17 17 16.3284 17 15.5V15H4V16C4 16.3643 3.90261 16.7058 3.73244 17H15.5Z" fill="white"/>
</svg>
