<svg class="icon--address-book" width="17" height="18" viewBox="0 0 15 16" fill-opacity="0" fill="none" xmlns="http://www.w3.org/2000/svg">
<path class="icon--address-book" d="M4.26665 4.80001H1.06665M4.26665 11.2H1.06665M5.86665 12.2667V11.7332C5.86665 10.2605 7.06056 9.06667 8.53332 9.06667C10.0061 9.06667 11.2 10.2606 11.2 11.7333V12.2667H5.86665ZM8.53332 3.73334C7.64966 3.73334 6.93332 4.44968 6.93332 5.33334C6.93332 6.217 7.64966 6.93334 8.53332 6.93334C9.41697 6.93334 10.1333 6.217 10.1333 5.33334C10.1333 4.44968 9.41697 3.73334 8.53332 3.73334ZM3.73332 0.53334H13.3333C13.9224 0.53334 14.4 1.0109 14.4 1.60001V14.4C14.4 14.9891 13.9224 15.4667 13.3333 15.4667H3.73332C3.14421 15.4667 2.66665 14.9891 2.66665 14.4V1.60001C2.66665 1.0109 3.14421 0.53334 3.73332 0.53334Z" stroke="white" stroke-linecap="round" stroke-linejoin="round"/>
</svg>
