<svg width="24" height="24" viewBox="0 0 24 24"  fill="#82baf6" xmlns="http://www.w3.org/2000/svg">
  <path d="M15.015 11.3662C15.3825 12.6262 16.5375 13.545 17.9287 13.545C19.635 13.5712 21 12.18 21 10.5C21 8.82 19.635 7.42875 17.9287 7.42875C16.5375 7.42875 15.3825 8.3475 15.015 9.6075H10.4212C10.3425 9.0825 10.185 8.61 9.94875 8.16375L13.7287 5.43375C14.2537 5.85375 14.91 6.1425 15.645 6.1425C17.325 6.1425 18.7162 4.7775 18.7162 3.07125C18.7162 1.365 17.325 0 15.645 0C13.965 0 12.5737 1.365 12.5737 3.07125C12.5737 3.38625 12.6262 3.70125 12.7312 3.99L8.925 6.74625C7.98 5.8275 6.69375 5.25 5.25 5.25C2.3625 5.25 0 7.6125 0 10.5C0 13.3875 2.3625 15.75 5.25 15.75C6.6675 15.75 7.98 15.1725 8.925 14.2537L12.7312 17.0362C12.6262 17.325 12.5737 17.64 12.5737 17.955C12.5737 19.635 13.9387 21.0262 15.645 21.0262C17.325 21.0262 18.7162 19.6612 18.7162 17.955C18.7162 16.275 17.3512 14.8837 15.645 14.8837C14.91 14.8837 14.2537 15.1462 13.7287 15.5925L9.94875 12.8362C10.185 12.39 10.3425 11.8912 10.4212 11.3925H15.015V11.3662ZM17.9287 9.1875C18.6637 9.1875 19.2412 9.765 19.2412 10.5C19.2412 11.235 18.6637 11.8125 17.9287 11.8125C17.1938 11.8125 16.6162 11.235 16.6162 10.5C16.6162 9.765 17.22 9.1875 17.9287 9.1875ZM15.645 1.75875C16.38 1.75875 16.9575 2.33625 16.9575 3.07125C16.9575 3.80625 16.38 4.38375 15.645 4.38375C14.91 4.38375 14.3325 3.80625 14.3325 3.07125C14.3325 2.33625 14.91 1.75875 15.645 1.75875ZM5.25 13.9912C3.3075 13.9912 1.75875 12.4162 1.75875 10.5C1.75875 8.58375 3.33375 7.00875 5.25 7.00875C7.16625 7.00875 8.74125 8.58375 8.74125 10.5C8.74125 12.4425 7.1925 13.9912 5.25 13.9912ZM15.645 16.6162C16.38 16.6162 16.9575 17.1937 16.9575 17.9287C16.9575 18.6637 16.38 19.2412 15.645 19.2412C14.91 19.2412 14.3325 18.6637 14.3325 17.9287C14.3325 17.22 14.91 16.6162 15.645 16.6162Z">
  </path>
</svg>