<svg width="19" height="19" viewBox="0 0 19 19" fill="none" xmlns="http://www.w3.org/2000/svg">
<g clip-path="url(#clip0)">
<path d="M12.1206 6.88379C11.8749 6.88379 11.6757 7.08298 11.6757 7.32875V15.7386C11.6757 15.9842 11.8749 16.1836 12.1206 16.1836C12.3664 16.1836 12.5656 15.9842 12.5656 15.7386V7.32875C12.5656 7.08298 12.3664 6.88379 12.1206 6.88379Z" fill="white"/>
<path d="M6.87038 6.88379C6.62461 6.88379 6.42542 7.08298 6.42542 7.32875V15.7386C6.42542 15.9842 6.62461 16.1836 6.87038 16.1836C7.11615 16.1836 7.31534 15.9842 7.31534 15.7386V7.32875C7.31534 7.08298 7.11615 6.88379 6.87038 6.88379Z" fill="white"/>
<path d="M3.04471 5.65648V16.6194C3.04471 17.2674 3.28232 17.8759 3.69738 18.3126C4.11054 18.7504 4.68552 18.999 5.28726 19H13.7061C14.308 18.999 14.883 18.7504 15.296 18.3126C15.7111 17.8759 15.9487 17.2674 15.9487 16.6194V5.65648C16.7738 5.43748 17.3084 4.64037 17.198 3.79372C17.0875 2.94725 16.3663 2.31404 15.5126 2.31387H13.2344V1.75766C13.237 1.28993 13.052 0.840796 12.7209 0.510376C12.3898 0.18013 11.94 -0.00376544 11.4723 5.84646e-05H7.52112C7.05338 -0.00376544 6.60355 0.18013 6.27244 0.510376C5.94132 0.840796 5.75638 1.28993 5.75899 1.75766V2.31387H3.48081C2.62704 2.31404 1.90589 2.94725 1.79534 3.79372C1.68497 4.64037 2.21962 5.43748 3.04471 5.65648ZM13.7061 18.1101H5.28726C4.52648 18.1101 3.93464 17.4565 3.93464 16.6194V5.69559H15.0587V16.6194C15.0587 17.4565 14.4669 18.1101 13.7061 18.1101ZM6.64892 1.75766C6.64596 1.52597 6.73704 1.30297 6.90147 1.13941C7.06572 0.97585 7.28925 0.885988 7.52112 0.889986H11.4723C11.7041 0.885988 11.9276 0.97585 12.0919 1.13941C12.2563 1.30279 12.3474 1.52597 12.3445 1.75766V2.31387H6.64892V1.75766ZM3.48081 3.2038H15.5126C15.9549 3.2038 16.3135 3.56237 16.3135 4.00473C16.3135 4.44709 15.9549 4.80566 15.5126 4.80566H3.48081C3.03846 4.80566 2.67988 4.44709 2.67988 4.00473C2.67988 3.56237 3.03846 3.2038 3.48081 3.2038Z" fill="white"/>
<path d="M9.49549 6.88379C9.24972 6.88379 9.05054 7.08298 9.05054 7.32875V15.7386C9.05054 15.9842 9.24972 16.1836 9.49549 16.1836C9.74126 16.1836 9.94045 15.9842 9.94045 15.7386V7.32875C9.94045 7.08298 9.74126 6.88379 9.49549 6.88379Z" fill="white"/>
</g>
<defs>
<clipPath id="clip0">
<rect width="19" height="19" fill="white"/>
</clipPath>
</defs>
</svg>
