<svg width="24" height="24" viewBox="0 0 24 24" fill="none" xmlns="http://www.w3.org/2000/svg">
<path d="M16 4H8V4.5C8 4.77614 7.77614 5 7.5 5C7.22386 5 7 4.77614 7 4.5V4H5.5C4.67157 4 4 4.67157 4 5.5V8H20V5.5C20 4.67157 19.3284 4 18.5 4H17V4.5C17 4.77614 16.7761 5 16.5 5C16.2239 5 16 4.77614 16 4.5V4ZM17 3H18.5C19.8807 3 21 4.11929 21 5.5V18.5074C21 19.8881 19.8807 21.0074 18.5 21.0074H5.5C4.11929 21.0074 3 19.8881 3 18.5074V5.5C3 4.11929 4.11929 3 5.5 3H7V2.5C7 2.22386 7.22386 2 7.5 2C7.77614 2 8 2.22386 8 2.5V3H16V2.5C16 2.22386 16.2239 2 16.5 2C16.7761 2 17 2.22386 17 2.5V3ZM20 9H4V18.5074C4 19.3358 4.67157 20.0074 5.5 20.0074H18.5C19.3284 20.0074 20 19.3358 20 18.5074V9Z" fill="white"/>
</svg>
