<svg class="icon--cart" width="17" height="17" viewBox="0 0 16 16" fill="none" fill-opacity="0" xmlns="http://www.w3.org/2000/svg">
<path class="icon--cart" d="M0.533325 0.533333L1.17333 2.66667M1.17333 2.66667L3.73333 11.2H15.4667V4.8C15.4667 3.62179 14.5115 2.66667 13.3333 2.66667H1.17333ZM13.3333 15.4667C12.7442 15.4667 12.2667 14.9891 12.2667 14.4C12.2667 13.8109 12.7442 13.3333 13.3333 13.3333C13.9224 13.3333 14.4 13.8109 14.4 14.4C14.4 14.9891 13.9224 15.4667 13.3333 15.4667ZM4.79999 14.4C4.79999 13.8109 5.27755 13.3333 5.86666 13.3333C6.45576 13.3333 6.93332 13.8109 6.93332 14.4C6.93332 14.9891 6.45576 15.4667 5.86666 15.4667C5.27755 15.4667 4.79999 14.9891 4.79999 14.4Z" stroke="white" stroke-linecap="round" stroke-linejoin="round"/>
</svg>

