<svg class="icon--checked" width="74" height="74" viewBox="0 0 74 74" fill="none" xmlns="http://www.w3.org/2000/svg">
<path d="M71.8848 10.116C70.7962 9.02554 69.0298 9.02366 67.9412 10.1114L34.4833 43.4811L22.4117 30.3702C21.3686 29.2379 19.6051 29.1645 18.4709 30.2075C17.3377 31.2505 17.2651 33.015 18.3082 34.1482L32.3459 49.3935C32.86 49.9523 33.5795 50.2768 34.3382 50.2925C34.3585 50.2934 34.3782 50.2934 34.3977 50.2934C35.135 50.2934 35.8442 50.0006 36.3666 49.48L71.8793 14.0604C72.9706 12.9728 72.9725 11.2065 71.8848 10.116Z" fill="#16B157"/>
<path d="M71.211 34.211C69.6706 34.211 68.4221 35.4594 68.4221 37C68.4221 54.3268 54.3268 68.4221 37 68.4221C19.6742 68.4221 5.57789 54.3268 5.57789 37C5.57789 19.6742 19.6742 5.57789 37 5.57789C38.5404 5.57789 39.789 4.32943 39.789 2.78902C39.789 1.24846 38.5404 0 37 0C16.598 0 0 16.598 0 37C0 57.4012 16.598 74 37 74C57.4012 74 74 57.4012 74 37C74 35.4596 72.7515 34.211 71.211 34.211Z" fill="#16B157"/>
</svg>
