<svg class="icon--checkmark-circle" width="24" height="24" viewBox="0 0 24 24" fill="none" xmlns="http://www.w3.org/2000/svg">
<path d="M12 22C6.47715 22 2 17.5228 2 12C2 6.47715 6.47715 2 12 2C17.5228 2 22 6.47715 22 12C22 17.5228 17.5228 22 12 22ZM12 21C16.9706 21 21 16.9706 21 12C21 7.02944 16.9706 3 12 3C7.02944 3 3 7.02944 3 12C3 16.9706 7.02944 21 12 21ZM15.1464 9.14645C15.3417 8.95118 15.6583 8.95118 15.8536 9.14645C16.0488 9.34171 16.0488 9.65829 15.8536 9.85355L10.8536 14.8536C10.6583 15.0488 10.3417 15.0488 10.1464 14.8536L8.14645 12.8536C7.95118 12.6583 7.95118 12.3417 8.14645 12.1464C8.34171 11.9512 8.65829 11.9512 8.85355 12.1464L10.5 13.7929L15.1464 9.14645Z" fill="#16B157"/>
</svg>
