<svg width="20" height="20" viewBox="0 0 20 20" fill="none" xmlns="http://www.w3.org/2000/svg">
<path d="M10 20C4.47715 20 0 15.5228 0 10C0 4.47715 4.47715 0 10 0C15.5228 0 20 4.47715 20 10C20 15.5228 15.5228 20 10 20ZM10 19C14.9706 19 19 14.9706 19 10C19 5.02944 14.9706 1 10 1C5.02944 1 1 5.02944 1 10C1 14.9706 5.02944 19 10 19ZM13.1464 7.14645C13.3417 6.95118 13.6583 6.95118 13.8536 7.14645C14.0488 7.34171 14.0488 7.65829 13.8536 7.85355L8.85355 12.8536C8.65829 13.0488 8.34171 13.0488 8.14645 12.8536L6.14645 10.8536C5.95118 10.6583 5.95118 10.3417 6.14645 10.1464C6.34171 9.95118 6.65829 9.95118 6.85355 10.1464L8.5 11.7929L13.1464 7.14645Z" fill="white"/>
</svg>
