<svg width="24" height="24" viewBox="0 0 24 24" fill="none" xmlns="http://www.w3.org/2000/svg">
<path d="M8.12037 8.82539C7.94066 8.61572 7.96494 8.30007 8.17461 8.12036C8.38427 7.94065 8.69992 7.96493 8.87963 8.17459L11.8796 11.6746C12.0401 11.8618 12.0401 12.1381 11.8796 12.3254L8.87963 15.8254C8.69992 16.035 8.38427 16.0593 8.1746 15.8796C7.96494 15.6999 7.94066 15.3843 8.12037 15.1746L10.8415 12L8.12037 8.82539ZM12.1204 8.82539C11.9407 8.61572 11.9649 8.30007 12.1746 8.12036C12.3843 7.94065 12.6999 7.96493 12.8796 8.1746L15.8796 11.6746C16.0401 11.8618 16.0401 12.1381 15.8796 12.3254L12.8796 15.8254C12.6999 16.035 12.3843 16.0593 12.1746 15.8796C11.9649 15.6999 11.9407 15.3843 12.1204 15.1746L14.8415 12L12.1204 8.82539Z" fill="white"/>
</svg>
