<svg width="24" height="24" viewBox="0 0 24 24" fill="none" xmlns="http://www.w3.org/2000/svg">
<path d="M15.8796 8.82539C16.0593 8.61572 16.0351 8.30007 15.8254 8.12036C15.6157 7.94065 15.3001 7.96493 15.1204 8.17459L12.1204 11.6746C11.9599 11.8618 11.9599 12.1381 12.1204 12.3254L15.1204 15.8254C15.3001 16.035 15.6157 16.0593 15.8254 15.8796C16.0351 15.6999 16.0593 15.3843 15.8796 15.1746L13.1585 12L15.8796 8.82539ZM11.8796 8.82539C12.0593 8.61572 12.0351 8.30007 11.8254 8.12036C11.6157 7.94065 11.3001 7.96493 11.1204 8.1746L8.12037 11.6746C7.95988 11.8618 7.95988 12.1381 8.12037 12.3254L11.1204 15.8254C11.3001 16.035 11.6157 16.0593 11.8254 15.8796C12.0351 15.6999 12.0593 15.3843 11.8796 15.1746L9.15854 12L11.8796 8.82539Z" fill="white"/>
</svg>
