<svg width="20" height="16" viewBox="0 0 20 16" fill="none" xmlns="http://www.w3.org/2000/svg">
<path d="M4 0.5C4 0.223858 4.22386 0 4.5 0C4.77614 0 5 0.223858 5 0.5V2.5C5 3.88071 3.88071 5 2.5 5H0.5C0.223858 5 0 4.77614 0 4.5C0 4.22386 0.223858 4 0.5 4H2.5C3.32843 4 4 3.32843 4 2.5V0.5ZM0.5 12C0.223858 12 0 11.7761 0 11.5C0 11.2239 0.223858 11 0.5 11H2.5C3.88071 11 5 12.1193 5 13.5V15.5C5 15.7761 4.77614 16 4.5 16C4.22386 16 4 15.7761 4 15.5V13.5C4 12.6716 3.32843 12 2.5 12H0.5ZM19.5 4C19.7761 4 20 4.22386 20 4.5C20 4.77614 19.7761 5 19.5 5H17.5C16.1193 5 15 3.88071 15 2.5V0.5C15 0.223858 15.2239 0 15.5 0C15.7761 0 16 0.223858 16 0.5V2.5C16 3.32843 16.6716 4 17.5 4H19.5ZM16 15.5C16 15.7761 15.7761 16 15.5 16C15.2239 16 15 15.7761 15 15.5V13.5C15 12.1193 16.1193 11 17.5 11H19.5C19.7761 11 20 11.2239 20 11.5C20 11.7761 19.7761 12 19.5 12H17.5C16.6716 12 16 12.6716 16 13.5V15.5Z" fill="white"/>
</svg>
