<svg width="24" height="24" viewBox="0 0 24 24" fill="none" xmlns="http://www.w3.org/2000/svg">
<path d="M6 4.5C6 4.22386 6.22386 4 6.5 4C6.77614 4 7 4.22386 7 4.5V6.5C7 7.88071 5.88071 9 4.5 9H2.5C2.22386 9 2 8.77614 2 8.5C2 8.22386 2.22386 8 2.5 8H4.5C5.32843 8 6 7.32843 6 6.5V4.5ZM2.5 16C2.22386 16 2 15.7761 2 15.5C2 15.2239 2.22386 15 2.5 15H4.5C5.88071 15 7 16.1193 7 17.5V19.5C7 19.7761 6.77614 20 6.5 20C6.22386 20 6 19.7761 6 19.5V17.5C6 16.6716 5.32843 16 4.5 16H2.5ZM21.5 8C21.7761 8 22 8.22386 22 8.5C22 8.77614 21.7761 9 21.5 9H19.5C18.1193 9 17 7.88071 17 6.5V4.5C17 4.22386 17.2239 4 17.5 4C17.7761 4 18 4.22386 18 4.5V6.5C18 7.32843 18.6716 8 19.5 8H21.5ZM18 19.5C18 19.7761 17.7761 20 17.5 20C17.2239 20 17 19.7761 17 19.5V17.5C17 16.1193 18.1193 15 19.5 15H21.5C21.7761 15 22 15.2239 22 15.5C22 15.7761 21.7761 16 21.5 16H19.5C18.6716 16 18 16.6716 18 17.5V19.5Z" fill="white"/>
</svg>
