<svg width="24" height="24" viewBox="0 0 24 24" fill="none" xmlns="http://www.w3.org/2000/svg">
<path d="M14.2929 12H6.5C6.22386 12 6 11.7761 6 11.5C6 11.2239 6.22386 11 6.5 11H14.2929L12.1464 8.85355C11.9512 8.65829 11.9512 8.34171 12.1464 8.14645C12.3417 7.95118 12.6583 7.95118 12.8536 8.14645L15.8536 11.1464C16.0488 11.3417 16.0488 11.6583 15.8536 11.8536L12.8536 14.8536C12.6583 15.0488 12.3417 15.0488 12.1464 14.8536C11.9512 14.6583 11.9512 14.3417 12.1464 14.1464L14.2929 12ZM7.5 20C7.77614 20 8 20.2239 8 20.5C8 20.7761 7.77614 21 7.5 21H4.5C3.11929 21 2 19.8807 2 18.5V5.5C2 4.11929 3.11929 3 4.5 3H7.5C7.77614 3 8 3.22386 8 3.5C8 3.77614 7.77614 4 7.5 4H4.5C3.67157 4 3 4.67157 3 5.5V18.5C3 19.3284 3.67157 20 4.5 20H7.5ZM22 5.5C22 5.77614 21.7761 6 21.5 6C21.2239 6 21 5.77614 21 5.5C21 4.67157 20.3284 4 19.5 4C19.2239 4 19 3.77614 19 3.5C19 3.22386 19.2239 3 19.5 3C20.8807 3 22 4.11929 22 5.5ZM19.5 21C19.2239 21 19 20.7761 19 20.5C19 20.2239 19.2239 20 19.5 20C20.3284 20 21 19.3284 21 18.5C21 18.2239 21.2239 18 21.5 18C21.7761 18 22 18.2239 22 18.5C22 19.8807 20.8807 21 19.5 21ZM11.5 3C11.7761 3 12 3.22386 12 3.5C12 3.77614 11.7761 4 11.5 4C10.6716 4 10 4.67157 10 5.5C10 5.77614 9.77614 6 9.5 6C9.22386 6 9 5.77614 9 5.5C9 4.11929 10.1193 3 11.5 3ZM9 18.5C9 18.2239 9.22386 18 9.5 18C9.77614 18 10 18.2239 10 18.5C10 19.3284 10.6716 20 11.5 20C11.7761 20 12 20.2239 12 20.5C12 20.7761 11.7761 21 11.5 21C10.1193 21 9 19.8807 9 18.5ZM21 8.5C21 8.22386 21.2239 8 21.5 8C21.7761 8 22 8.22386 22 8.5V10.5C22 10.7761 21.7761 11 21.5 11C21.2239 11 21 10.7761 21 10.5V8.5ZM16.5 3C16.7761 3 17 3.22386 17 3.5C17 3.77614 16.7761 4 16.5 4H14.5C14.2239 4 14 3.77614 14 3.5C14 3.22386 14.2239 3 14.5 3H16.5ZM16.5 20C16.7761 20 17 20.2239 17 20.5C17 20.7761 16.7761 21 16.5 21H14.5C14.2239 21 14 20.7761 14 20.5C14 20.2239 14.2239 20 14.5 20H16.5ZM21 13.5C21 13.2239 21.2239 13 21.5 13C21.7761 13 22 13.2239 22 13.5V15.5C22 15.7761 21.7761 16 21.5 16C21.2239 16 21 15.7761 21 15.5V13.5Z" fill="white"/>
</svg>
