<svg width="20" height="18" viewBox="0 0 20 18" fill="none" xmlns="http://www.w3.org/2000/svg">
<path d="M12.2929 9H4.5C4.22386 9 4 8.77614 4 8.5C4 8.22386 4.22386 8 4.5 8H12.2929L10.1464 5.85355C9.95118 5.65829 9.95118 5.34171 10.1464 5.14645C10.3417 4.95118 10.6583 4.95118 10.8536 5.14645L13.8536 8.14645C14.0488 8.34171 14.0488 8.65829 13.8536 8.85355L10.8536 11.8536C10.6583 12.0488 10.3417 12.0488 10.1464 11.8536C9.95118 11.6583 9.95118 11.3417 10.1464 11.1464L12.2929 9ZM2.5 0C2.77614 0 3 0.223858 3 0.5C3 0.776142 2.77614 1 2.5 1C1.67157 1 1 1.67157 1 2.5C1 2.77614 0.776142 3 0.5 3C0.223858 3 0 2.77614 0 2.5C0 1.11929 1.11929 0 2.5 0ZM0 5.5C0 5.22386 0.223858 5 0.5 5C0.776142 5 1 5.22386 1 5.5V7.5C1 7.77614 0.776142 8 0.5 8C0.223858 8 0 7.77614 0 7.5V5.5ZM0 10.5C0 10.2239 0.223858 10 0.5 10C0.776142 10 1 10.2239 1 10.5V12.5C1 12.7761 0.776142 13 0.5 13C0.223858 13 0 12.7761 0 12.5V10.5ZM0 15.5C0 15.2239 0.223858 15 0.5 15C0.776142 15 1 15.2239 1 15.5C1 16.3284 1.67157 17 2.5 17C2.77614 17 3 17.2239 3 17.5C3 17.7761 2.77614 18 2.5 18C1.11929 18 0 16.8807 0 15.5ZM8 2.5C8 2.77614 7.77614 3 7.5 3C7.22386 3 7 2.77614 7 2.5C7 1.11929 8.11929 0 9.5 0H17.5C18.8807 0 20 1.11929 20 2.5V15.5C20 16.8807 18.8807 18 17.5 18H9.5C8.11929 18 7 16.8807 7 15.5C7 15.2239 7.22386 15 7.5 15C7.77614 15 8 15.2239 8 15.5C8 16.3284 8.67157 17 9.5 17H17.5C18.3284 17 19 16.3284 19 15.5V2.5C19 1.67157 18.3284 1 17.5 1H9.5C8.67157 1 8 1.67157 8 2.5ZM6.5 17C6.77614 17 7 17.2239 7 17.5C7 17.7761 6.77614 18 6.5 18H4.5C4.22386 18 4 17.7761 4 17.5C4 17.2239 4.22386 17 4.5 17H6.5ZM6.5 0C6.77614 0 7 0.223858 7 0.5C7 0.776142 6.77614 1 6.5 1H4.5C4.22386 1 4 0.776142 4 0.5C4 0.223858 4.22386 0 4.5 0H6.5Z" fill="white"/>
</svg>
