<svg width="18" height="12" viewBox="0 0 18 12" fill="none" xmlns="http://www.w3.org/2000/svg">
<path d="M16.2929 1H13.5C13.2239 1 13 0.776142 13 0.5C13 0.223858 13.2239 0 13.5 0H17.5C17.7761 0 18 0.223858 18 0.5V4.5C18 4.77614 17.7761 5 17.5 5C17.2239 5 17 4.77614 17 4.5V1.70711L11.8536 6.85355C11.6583 7.04882 11.3417 7.04882 11.1464 6.85355L8.5 4.20711L4.85355 7.85355C4.65829 8.04882 4.34171 8.04882 4.14645 7.85355C3.95118 7.65829 3.95118 7.34171 4.14645 7.14645L8.14645 3.14645C8.34171 2.95118 8.65829 2.95118 8.85355 3.14645L11.5 5.79289L16.2929 1ZM17.5 11C17.7761 11 18 11.2239 18 11.5C18 11.7761 17.7761 12 17.5 12H2.5C1.11929 12 0 10.8807 0 9.5V0.5C0 0.223858 0.223858 0 0.5 0C0.776142 0 1 0.223858 1 0.5V9.5C1 10.3284 1.67157 11 2.5 11H17.5Z" fill="white"/>
</svg>
