<svg width="16" height="16" viewBox="0 0 16 16" fill="none" xmlns="http://www.w3.org/2000/svg">
<path d="M8.3335 15.334C4.4675 15.334 1.3335 12.2 1.3335 8.33398C1.3335 4.46799 4.4675 1.33398 8.3335 1.33398C12.1995 1.33398 15.3335 4.46799 15.3335 8.33398C15.3335 12.2 12.1995 15.334 8.3335 15.334ZM8.3335 14.6673C11.8313 14.6673 14.6668 11.8318 14.6668 8.33398C14.6668 4.83618 11.8313 2.00065 8.3335 2.00065C4.83569 2.00065 2.00016 4.83618 2.00016 8.33398C2.00016 11.8318 4.83569 14.6673 8.3335 14.6673ZM8.66683 8.33398C8.66683 8.51808 8.51759 8.66732 8.3335 8.66732C8.1494 8.66732 8.00016 8.51808 8.00016 8.33398V5.66732C8.00016 5.48322 8.1494 5.33398 8.3335 5.33398C8.51759 5.33398 8.66683 5.48322 8.66683 5.66732V8.33398ZM8.00016 10.0007H8.66683V10.6673H8.00016V10.0007Z" fill="white"/>
</svg>
