<svg width="24" height="24" viewBox="0 0 24 24" fill="none" xmlns="http://www.w3.org/2000/svg">
<path d="M11.5 10C11.2239 10 11 9.77614 11 9.5C11 9.22386 11.2239 9 11.5 9H16.5C16.7761 9 17 9.22386 17 9.5C17 9.77614 16.7761 10 16.5 10H11.5ZM9.5 13C9.22386 13 9 12.7761 9 12.5C9 12.2239 9.22386 12 9.5 12H16.5C16.7761 12 17 12.2239 17 12.5C17 12.7761 16.7761 13 16.5 13H9.5ZM9.5 16C9.22386 16 9 15.7761 9 15.5C9 15.2239 9.22386 15 9.5 15H14.5C14.7761 15 15 15.2239 15 15.5C15 15.7761 14.7761 16 14.5 16H9.5ZM11.5 5C11.2239 5 11 4.77614 11 4.5C11 4.22386 11.2239 4 11.5 4H18.5C19.8807 4 21 5.11929 21 6.5V19.5C21 20.8807 19.8807 22 18.5 22H7.5C6.11929 22 5 20.8807 5 19.5V14.5C5 14.2239 5.22386 14 5.5 14C5.77614 14 6 14.2239 6 14.5V19.5C6 20.3284 6.67157 21 7.5 21H18.5C19.3284 21 20 20.3284 20 19.5V6.5C20 5.67157 19.3284 5 18.5 5H11.5ZM6 8.5C6 8.77614 5.77614 9 5.5 9C5.22386 9 5 8.77614 5 8.5V5C5 3.89543 5.89543 3 7 3C8.10457 3 9 3.89543 9 5V8.5C9 10.433 7.433 12 5.5 12C3.567 12 2 10.433 2 8.5V3.5C2 3.22386 2.22386 3 2.5 3C2.77614 3 3 3.22386 3 3.5V8.5C3 9.88071 4.11929 11 5.5 11C6.88071 11 8 9.88071 8 8.5V5C8 4.44772 7.55228 4 7 4C6.44772 4 6 4.44772 6 5V8.5Z" fill="#82BAF6"/>
</svg>
