<svg width="19" height="19" viewBox="0 0 19 19" fill="none" xmlns="http://www.w3.org/2000/svg">
<path d="M9.5 7C9.22386 7 9 6.77614 9 6.5C9 6.22386 9.22386 6 9.5 6H14.5C14.7761 6 15 6.22386 15 6.5C15 6.77614 14.7761 7 14.5 7H9.5ZM7.5 10C7.22386 10 7 9.77614 7 9.5C7 9.22386 7.22386 9 7.5 9H14.5C14.7761 9 15 9.22386 15 9.5C15 9.77614 14.7761 10 14.5 10H7.5ZM7.5 13C7.22386 13 7 12.7761 7 12.5C7 12.2239 7.22386 12 7.5 12H12.5C12.7761 12 13 12.2239 13 12.5C13 12.7761 12.7761 13 12.5 13H7.5ZM9.5 2C9.22386 2 9 1.77614 9 1.5C9 1.22386 9.22386 1 9.5 1H16.5C17.8807 1 19 2.11929 19 3.5V16.5C19 17.8807 17.8807 19 16.5 19H5.5C4.11929 19 3 17.8807 3 16.5V11.5C3 11.2239 3.22386 11 3.5 11C3.77614 11 4 11.2239 4 11.5V16.5C4 17.3284 4.67157 18 5.5 18H16.5C17.3284 18 18 17.3284 18 16.5V3.5C18 2.67157 17.3284 2 16.5 2H9.5ZM4 5.5C4 5.77614 3.77614 6 3.5 6C3.22386 6 3 5.77614 3 5.5V2C3 0.89543 3.89543 0 5 0C6.10457 0 7 0.89543 7 2V5.5C7 7.433 5.433 9 3.5 9C1.567 9 0 7.433 0 5.5V0.5C0 0.223858 0.223858 0 0.5 0C0.776142 0 1 0.223858 1 0.5V5.5C1 6.88071 2.11929 8 3.5 8C4.88071 8 6 6.88071 6 5.5V2C6 1.44772 5.55228 1 5 1C4.44772 1 4 1.44772 4 2V5.5Z" fill="white"/>
</svg>
