<svg width="16" height="20" viewBox="0 0 16 20" fill="none" xmlns="http://www.w3.org/2000/svg">
<path d="M15.5 7.00003C15.2239 7.00003 15 6.77617 15 6.50003V5.00003H11.5C11.2239 5.00003 11 4.77617 11 4.50003V1.00003H2.5C1.67157 1.00003 1 1.6716 1 2.50003V17.5C1 18.3285 1.67157 19 2.5 19H13.5C14.3284 19 15 18.3285 15 17.5V15.5C15 15.2239 15.2239 15 15.5 15C15.7761 15 16 15.2239 16 15.5V17.5C16 18.8807 14.8807 20 13.5 20H2.5C1.11929 20 0 18.8807 0 17.5V2.50003C0 1.11931 1.11929 2.58138e-05 2.5 2.58138e-05H11.472C11.6048 -0.00839366 11.7429 0.0358654 11.8536 0.146473L15.8536 4.14647C15.9642 4.25708 16.0084 4.39526 16 4.528V6.50003C16 6.77617 15.7761 7.00003 15.5 7.00003ZM14.2929 11H6.48612C6.20998 11 5.98612 10.7762 5.98612 10.5C5.98612 10.2239 6.20998 10 6.48612 10H14.2929L12.1464 7.85358C11.9512 7.65832 11.9512 7.34173 12.1464 7.14647C12.3417 6.95121 12.6583 6.95121 12.8536 7.14647L15.8536 10.1465C16.0488 10.3417 16.0488 10.6583 15.8536 10.8536L12.8536 13.8536C12.6583 14.0488 12.3417 14.0488 12.1464 13.8536C11.9512 13.6583 11.9512 13.3417 12.1464 13.1465L14.2929 11ZM12 1.70713V4.00003H14.2929L12 1.70713Z" fill="white"/>
</svg>
