<svg width="16" height="20" viewBox="0 0 16 20" fill="none" xmlns="http://www.w3.org/2000/svg">
<path d="M16 4.52898V17.501C16 18.8817 14.8807 20.001 13.5 20.001H2.5C1.11929 20.001 0 18.8817 0 17.501V2.501C0 1.12029 1.11929 0.00100238 2.5 0.00100238H11.472C11.6048 -0.00741709 11.7429 0.036842 11.8536 0.147449L15.8536 4.14745C15.9642 4.25806 16.0084 4.39623 16 4.52898ZM11 1.001H2.5C1.67157 1.001 1 1.67258 1 2.501V17.501C1 18.3294 1.67157 19.001 2.5 19.001H13.5C14.3284 19.001 15 18.3294 15 17.501V5.001H11.5C11.2239 5.001 11 4.77714 11 4.501V1.001ZM12 1.70811V4.001H14.2929L12 1.70811ZM4 13H6V12H4V13ZM4 14V14.5C4 14.7761 4.22386 15 4.5 15H6V14H4ZM12.0139 13V12H7V13H12.0139ZM12.0139 14H7V15H11.5139C11.79 15 12.0139 14.7761 12.0139 14.5V14ZM4 11H6V10H4.5C4.22386 10 4 10.2239 4 10.5V11ZM12.0139 11V10.5C12.0139 10.2239 11.79 10 11.5139 10H7V11H12.0139ZM3 10.5C3 9.67157 3.67157 9 4.5 9H11.5139C12.3423 9 13.0139 9.67157 13.0139 10.5V14.5C13.0139 15.3284 12.3423 16 11.5139 16H4.5C3.67157 16 3 15.3284 3 14.5V10.5Z" fill="white"/>
</svg>
