<svg width="24" height="24" viewBox="0 0 24 24" fill="none" xmlns="http://www.w3.org/2000/svg">
<path d="M20 6.52898V19.501C20 20.8817 18.8807 22.001 17.5 22.001H6.5C5.11929 22.001 4 20.8817 4 19.501V4.501C4 3.12029 5.11929 2.001 6.5 2.001H15.472C15.6048 1.99258 15.7429 2.03684 15.8536 2.14745L19.8536 6.14745C19.9642 6.25806 20.0084 6.39623 20 6.52898ZM15 3.001H6.5C5.67157 3.001 5 3.67258 5 4.501V19.501C5 20.3294 5.67157 21.001 6.5 21.001H17.5C18.3284 21.001 19 20.3294 19 19.501V7.001H15.5C15.2239 7.001 15 6.77714 15 6.501V3.001ZM16 3.70811V6.001H18.2929L16 3.70811ZM8 15H10V14H8V15ZM8 16V16.5C8 16.7761 8.22386 17 8.5 17H10V16H8ZM16.0139 15V14H11V15H16.0139ZM16.0139 16H11V17H15.5139C15.79 17 16.0139 16.7761 16.0139 16.5V16ZM8 13H10V12H8.5C8.22386 12 8 12.2239 8 12.5V13ZM16.0139 13V12.5C16.0139 12.2239 15.79 12 15.5139 12H11V13H16.0139ZM7 12.5C7 11.6716 7.67157 11 8.5 11H15.5139C16.3423 11 17.0139 11.6716 17.0139 12.5V16.5C17.0139 17.3284 16.3423 18 15.5139 18H8.5C7.67157 18 7 17.3284 7 16.5V12.5Z" fill="white"/>
</svg>
