<svg width="24" height="24" viewBox="0 0 24 24" fill="none" xmlns="http://www.w3.org/2000/svg">
<path d="M19.5 9.00003C19.2239 9.00003 19 8.77617 19 8.50003V7.00003H15.5C15.2239 7.00003 15 6.77617 15 6.50003V3.00003H6.5C5.67157 3.00003 5 3.6716 5 4.50003V19.5C5 20.3285 5.67157 21 6.5 21H17.5C18.3284 21 19 20.3285 19 19.5V17.5C19 17.2239 19.2239 17 19.5 17C19.7761 17 20 17.2239 20 17.5V19.5C20 20.8807 18.8807 22 17.5 22H6.5C5.11929 22 4 20.8807 4 19.5V4.50003C4 3.11931 5.11929 2.00003 6.5 2.00003H15.472C15.6048 1.99161 15.7429 2.03587 15.8536 2.14647L19.8536 6.14647C19.9642 6.25708 20.0084 6.39526 20 6.528V8.50003C20 8.77617 19.7761 9.00003 19.5 9.00003ZM18.2929 13H10.4861C10.21 13 9.98612 12.7762 9.98612 12.5C9.98612 12.2239 10.21 12 10.4861 12H18.2929L16.1464 9.85358C15.9512 9.65832 15.9512 9.34173 16.1464 9.14647C16.3417 8.95121 16.6583 8.95121 16.8536 9.14647L19.8536 12.1465C20.0488 12.3417 20.0488 12.6583 19.8536 12.8536L16.8536 15.8536C16.6583 16.0488 16.3417 16.0488 16.1464 15.8536C15.9512 15.6583 15.9512 15.3417 16.1464 15.1465L18.2929 13ZM16 3.70713V6.00003H18.2929L16 3.70713Z" fill="white"/>
</svg>
