<svg class="icon--filter-summary" width="14" height="12" viewBox="0 0 14 12" fill="none" fill-opacity="0" xmlns="http://www.w3.org/2000/svg">
<path d="M13 2.79995L6.2 2.79995M6.2 2.79995C6.2 1.9163 5.48366 1.19995 4.6 1.19995C3.71634 1.19995 3 1.9163 3 2.79995M6.2 2.79995C6.2 3.68361 5.48366 4.39995 4.6 4.39995C3.71634 4.39995 3 3.68361 3 2.79995M3 2.79995H1M13 9.19995L11 9.19995M11 9.19995C11 8.3163 10.2837 7.59995 9.4 7.59995C8.51634 7.59995 7.8 8.31629 7.8 9.19995M11 9.19995C11 10.0836 10.2837 10.8 9.4 10.8C8.51634 10.8 7.8 10.0836 7.8 9.19995M7.8 9.19995H1" fill="none" stroke="#808B93" stroke-linecap="round" stroke-linejoin="round"/>
</svg>
