<svg width="20" height="20" viewBox="0 0 50 50" fill="none" version="1" xmlns="http://www.w3.org/2000/svg">
    <path d="M 0.8125 0 A 1.0001 1.0001 0 0 0 0 1 L 0 4 A 1.0001 1.0001 0 0 0 0.28125 4.6875 L 16 21.375 L 16 39 A 1.0001 1.0001 0 0 0 16.5 39.84375 L 26.5 45.84375 A 1.0001 1.0001 0 0 0 28 45 L 28 21.375 L 43.5625 4.84375 A 1.0001 1.0001 0 0 0 43.59375 4.8125 L 43.71875 4.6875 A 1.0001 1.0001 0 0 0 43.84375 4.53125 A 1.0001 1.0001 0 0 0 43.90625 4.46875 A 1.0001 1.0001 0 0 0 44 4.0625 A 1.0001 1.0001 0 0 0 44 4 A 1.0001 1.0001 0 0 0 44 3.84375 L 44 1 A 1.0001 1.0001 0 0 0 43 0 L 1 0 A 1.0001 1.0001 0 0 0 0.90625 0 A 1.0001 1.0001 0 0 0 0.8125 0 z M 2 2 L 42 2 L 42 3.625 L 26.5625 20 L 17.4375 20 L 2 3.625 L 2 2 z M 18 22 L 26 22 L 26 43.25 L 18 38.46875 L 18 22 z M 32.90625 31.96875 A 1.0001 1.0001 0 0 0 32.78125 32 A 1.0001 1.0001 0 0 0 32.28125 33.71875 L 39.5625 41 L 32.28125 48.28125 A 1.016466 1.016466 0 1 0 33.71875 49.71875 L 41 42.4375 L 48.28125 49.71875 A 1.016466 1.016466 0 1 0 49.71875 48.28125 L 42.4375 41 L 49.71875 33.71875 A 1.0001 1.0001 0 0 0 48.875 32 A 1.0001 1.0001 0 0 0 48.28125 32.28125 L 41 39.5625 L 33.71875 32.28125 A 1.0001 1.0001 0 0 0 32.90625 31.96875 z" fill="white"/>
</svg>
