<svg width="20" height="20" viewBox="0 0 20 20" fill="none" xmlns="http://www.w3.org/2000/svg">
<path d="M11 14H12.5C12.7761 14 13 14.2239 13 14.5C13 14.7761 12.7761 15 12.5 15H8.5C8.22386 15 8 14.7761 8 14.5C8 14.2239 8.22386 14 8.5 14H10V9H8.5C8.22386 9 8 8.77614 8 8.5C8 8.22386 8.22386 8 8.5 8H10.5C10.7761 8 11 8.22386 11 8.5V14ZM10 20C4.47715 20 0 15.5228 0 10C0 4.47715 4.47715 0 10 0C15.5228 0 20 4.47715 20 10C20 15.5228 15.5228 20 10 20ZM10 19C14.9706 19 19 14.9706 19 10C19 5.02944 14.9706 1 10 1C5.02944 1 1 5.02944 1 10C1 14.9706 5.02944 19 10 19ZM9.5 5H10.5C10.7761 5 11 5.22386 11 5.5V6.5C11 6.77614 10.7761 7 10.5 7H9.5C9.22386 7 9 6.77614 9 6.5V5.5C9 5.22386 9.22386 5 9.5 5Z" fill="white"/>
</svg>
