<svg width="24" height="24" viewBox="0 0 24 24" fill="none" xmlns="http://www.w3.org/2000/svg">
<path d="M13 16H14.5C14.7761 16 15 16.2239 15 16.5C15 16.7761 14.7761 17 14.5 17H10.5C10.2239 17 10 16.7761 10 16.5C10 16.2239 10.2239 16 10.5 16H12V11H10.5C10.2239 11 10 10.7761 10 10.5C10 10.2239 10.2239 10 10.5 10H12.5C12.7761 10 13 10.2239 13 10.5V16ZM12 22C6.47715 22 2 17.5228 2 12C2 6.47715 6.47715 2 12 2C17.5228 2 22 6.47715 22 12C22 17.5228 17.5228 22 12 22ZM12 21C16.9706 21 21 16.9706 21 12C21 7.02944 16.9706 3 12 3C7.02944 3 3 7.02944 3 12C3 16.9706 7.02944 21 12 21ZM11.5 7H12.5C12.7761 7 13 7.22386 13 7.5V8.5C13 8.77614 12.7761 9 12.5 9H11.5C11.2239 9 11 8.77614 11 8.5V7.5C11 7.22386 11.2239 7 11.5 7Z" fill="white"/>
</svg>
