<svg width="15" height="16" viewBox="0 0 15 16" fill="none" xmlns="http://www.w3.org/2000/svg">
<g clip-path="url(#clip0_591_816)">
<path d="M3.32054 6.85507H3.32774L3.45019 6.89828L3.56544 6.94148L3.68789 6.97748L3.80313 7.02789L3.92558 7.07109L4.04083 7.1143L4.16328 7.1575L4.27852 7.20071L4.39377 7.24391L4.50902 7.28711L4.63147 7.33032L4.74671 7.38072L4.86916 7.41673L4.98441 7.45993L5.10686 7.50314L5.22211 7.55354L5.34455 7.59675L5.4598 7.63275L5.57505 7.67595L5.6975 7.72636L5.81995 7.76956V6.08459H3.16207L3.04683 6.1422L2.77312 6.28622L2.4922 6.43743L2.21129 6.57424L1.94478 6.71826L1.66387 6.86947L1.38296 7.00629L1.10925 7.1575L0.828334 7.30152L0.554624 7.43833L0.280913 7.58955L0.0288116 7.71916L0 11.8452L0.280913 12.0396L0.554624 12.234L0.828334 12.4212L1.10925 12.6228L1.38296 12.8173L1.66387 13.0117L1.78632 13.1053L1.94478 12.9037L2.21129 12.5436L2.2401 12.5076L2.21129 12.486L1.94478 12.2916L1.66387 12.0972L1.38296 11.9028L1.10925 11.7084L0.828334 11.5067L0.756305 11.4635L0.777914 8.1224L0.828334 8.0936L1.10925 7.95678L1.38296 7.81997L1.66387 7.68315L1.94478 7.54634L2.21129 7.40233L2.4922 7.26551L2.77312 7.1359L3.04683 6.99189L3.32054 6.85507Z" fill="url(#paint0_linear_591_816)"/>
<path d="M8.08886 14.7254L7.85836 14.819L7.59906 14.927L7.33975 15.0278L7.08045 15.1359L6.9652 15.1791L6.82835 15.1143L6.56904 14.9774L6.30974 14.855L6.05764 14.7182L5.79833 14.5886L5.53903 14.4662L5.27972 14.3294L5.02042 14.1998L4.76111 14.0701L4.50181 13.9405L4.24251 13.8037L3.99761 13.6813L3.7383 13.5517L3.70949 13.5373V10.1674H2.96039V13.9981L3.21969 14.1206L3.479 14.2502L3.7383 14.387L3.99761 14.5094L4.24251 14.6462L4.50181 14.7758L4.76111 14.9054L5.02042 15.035L5.27972 15.1647L5.53903 15.2943L5.79833 15.4239L6.05764 15.5607L6.30974 15.6831L6.56904 15.8199L6.82835 15.9423L6.92919 15.9999L7.08045 15.9279L7.33975 15.8343L7.59906 15.7263L7.85836 15.6183L8.11046 15.5175L8.36977 15.4167L8.11046 14.7686L8.08886 14.7254Z" fill="url(#paint1_linear_591_816)"/>
<path d="M12.6915 10.045L12.7059 11.6291L12.6411 11.6867L12.2017 11.9892L11.7623 12.306L11.3229 12.6228L10.8836 12.9325L10.4442 13.2421L10.012 13.5589L9.57263 13.8686L9.31333 14.0558L9.13326 13.919L8.70108 13.5805L8.2617 13.2493L7.82233 12.9109L7.39015 12.5796L7.31092 12.522V10.8155L7.39015 10.7434L7.82233 10.2826L8.2617 9.82895L8.70108 9.36811L9.13326 8.91446L9.55823 8.46802H4.32172L4.76109 8.92886L5.19327 9.38251L5.63264 9.83615L6.07202 10.297L6.5042 10.7506L6.56902 10.8155V12.8821L6.94357 13.1773L7.39015 13.5157L7.82233 13.847L8.2617 14.1854L8.70108 14.5166L9.13326 14.8551L9.29172 14.9775L9.57263 14.7758L10.012 14.4734L10.4442 14.1566L10.8836 13.8398L11.3229 13.5373L11.7623 13.2205L12.2017 12.9037L12.6411 12.6012L13.0804 12.2844L13.4406 12.018L13.5126 10.0738L13.0804 10.0594L12.6915 10.045Z" fill="url(#paint2_linear_591_816)"/>
<path d="M0.713086 6.35825H0.763506L0.770709 4.24124L1.05162 4.06122L1.40456 3.8524L1.7503 3.64358L2.09604 3.42755L2.44178 3.21873L2.79473 3.00271L3.13326 2.79389L3.4862 2.58507L3.83194 2.36905L4.18489 2.15303H4.19209L4.52342 2.34745L4.87636 2.54187L5.2221 2.74349L5.56784 2.93791L5.91358 3.13232L6.25932 3.32674L6.60506 3.52836L6.9436 3.72278L6.958 3.69398L7.30374 3.06752L6.958 2.8659L6.60506 2.67148L6.25932 2.47706L5.91358 2.28264L5.56784 2.08102L5.2221 1.8866L4.87636 1.69218L4.52342 1.49056L4.18489 1.29614L4.17048 1.28894L3.83194 1.49056L3.4862 1.70658L3.13326 1.9226L2.79473 2.13863L2.44178 2.34745L2.09604 2.55627L1.7503 2.77229L1.40456 2.98111L1.05162 3.19713L0.713086 3.40595L0.360144 3.61477L0.0288101 3.82359L0.0144043 6.35105H0.360144L0.713086 6.35825Z" fill="url(#paint3_linear_591_816)"/>
<path d="M14.2546 4.42123L14.0745 4.27721L13.8944 4.1332L13.7143 3.98199L13.5343 3.83797L13.3542 3.69396L13.1669 3.54994L12.9868 3.40593L12.8068 3.26191L12.6195 3.1107L12.4826 3.00989L12.4322 3.06749L12.2521 3.29072L12.0721 3.52114L12.0217 3.57874L12.0721 3.62915L12.2521 3.78036L12.4322 3.93158L12.6195 4.0828L12.8068 4.23401L12.9868 4.39243L13.1669 4.54364L13.3542 4.69486L13.4406 4.76686L13.4478 8.1728L13.3542 8.23761L13.1669 8.35282L12.9868 8.46803L12.8068 8.58325L12.6195 8.69846L12.4322 8.81367L12.2521 8.92888L12.0721 9.04409L11.892 9.1593L11.7119 9.27451L11.5319 9.38973L11.3446 9.50494L11.1645 9.62015L10.9844 9.73536L10.8044 9.85057L10.6171 9.96578L10.437 10.081L10.6171 10.369L10.8044 10.6571L10.8332 10.7075L10.9844 10.6138L11.1645 10.5058L11.3446 10.3906L11.5319 10.2826L11.7119 10.1602L11.892 10.0522L12.0721 9.93698L12.2521 9.82897L12.4322 9.71376L12.6195 9.60575L12.8068 9.48334L12.9868 9.37532L13.1669 9.26011L13.3542 9.1521L13.5343 9.03689L13.7143 8.92888L13.8944 8.80647L14.0745 8.69846L14.2546 8.58325V4.42123Z" fill="url(#paint4_linear_591_816)"/>
<path d="M8.31216 6.45185V7.92079L8.36978 7.89919L8.61468 7.80558L8.85958 7.70477L9.09727 7.61116L9.34217 7.51035L9.58707 7.40954L9.82477 7.31593L10.0697 7.21512L10.3146 7.12151L10.5523 7.0207L10.7972 6.92709L11.0349 6.82628V2.36904L10.7611 2.19622L10.4802 2.0378L10.1993 1.87939L9.92561 1.70657L9.64469 1.54815L9.36378 1.38974L9.09007 1.22412L8.80916 1.05851L8.53545 0.892889L8.25453 0.734473L7.97362 0.568857L7.69991 0.40324L7.4262 0.244824L7.14529 0.0864086L6.99402 0L6.86437 0.0720072L6.58346 0.223222L6.30255 0.367237L6.03604 0.525653L5.75513 0.676868L5.47421 0.820882L5.1933 0.979298L5.47421 1.13771L5.75513 1.29613L5.92799 1.40414L6.03604 1.34653L6.30255 1.20252L6.58346 1.05131L6.86437 0.907291L6.97242 0.849685L7.14529 0.950495L7.4262 1.10891L7.69991 1.26733L7.97362 1.43294L8.25453 1.59856L8.53545 1.75698L8.80916 1.92259L9.09007 2.08821L9.36378 2.24662L9.64469 2.40504L9.92561 2.57786L10.1993 2.73627L10.293 2.78668V6.07021H8.32656" fill="url(#paint5_linear_591_816)"/>
<path d="M8.31213 7.92078L11.0348 6.82627L8.31213 6.07019" fill="url(#paint6_linear_591_816)"/>
<path d="M5.81996 7.92078V6.099L3.32776 6.84067L5.81996 7.91358" fill="url(#paint7_linear_591_816)"/>
</g>
<defs>
<linearGradient id="paint0_linear_591_816" x1="2.90817" y1="6.08675" x2="2.90817" y2="13.1024" gradientUnits="userSpaceOnUse">
<stop stop-color="#F6E93D"/>
<stop offset="0.13" stop-color="#F8E330"/>
<stop offset="0.35" stop-color="#F7C730"/>
<stop offset="0.64" stop-color="#F59C2E"/>
<stop offset="0.98" stop-color="#EB5E2C"/>
<stop offset="1" stop-color="#EB5C2C"/>
</linearGradient>
<linearGradient id="paint1_linear_591_816" x1="5.66616" y1="10.1702" x2="5.66616" y2="15.9992" gradientUnits="userSpaceOnUse">
<stop stop-color="#F6E93D"/>
<stop offset="0.13" stop-color="#F8E330"/>
<stop offset="0.35" stop-color="#F7C730"/>
<stop offset="0.64" stop-color="#F59C2E"/>
<stop offset="0.98" stop-color="#EB5E2C"/>
<stop offset="1" stop-color="#EB5C2C"/>
</linearGradient>
<linearGradient id="paint2_linear_591_816" x1="8.91681" y1="8.4673" x2="8.91681" y2="14.9796" gradientUnits="userSpaceOnUse">
<stop stop-color="#F6E93D"/>
<stop offset="0.13" stop-color="#F8E330"/>
<stop offset="0.35" stop-color="#F7C730"/>
<stop offset="0.64" stop-color="#F59C2E"/>
<stop offset="0.98" stop-color="#EB5E2C"/>
<stop offset="1" stop-color="#EB5C2C"/>
</linearGradient>
<linearGradient id="paint3_linear_591_816" x1="3.65871" y1="1.2911" x2="3.65871" y2="6.35897" gradientUnits="userSpaceOnUse">
<stop stop-color="#F6E93D"/>
<stop offset="0.13" stop-color="#F8E330"/>
<stop offset="0.35" stop-color="#F7C730"/>
<stop offset="0.64" stop-color="#F59C2E"/>
<stop offset="0.98" stop-color="#EB5E2C"/>
<stop offset="1" stop-color="#EB5C2C"/>
</linearGradient>
<linearGradient id="paint4_linear_591_816" x1="12.3487" y1="3.00845" x2="12.3487" y2="10.7082" gradientUnits="userSpaceOnUse">
<stop stop-color="#F6E93D"/>
<stop offset="0.13" stop-color="#F8E330"/>
<stop offset="0.35" stop-color="#F7C730"/>
<stop offset="0.64" stop-color="#F59C2E"/>
<stop offset="0.98" stop-color="#EB5E2C"/>
<stop offset="1" stop-color="#EB5C2C"/>
</linearGradient>
<linearGradient id="paint5_linear_591_816" x1="8.11336" y1="0" x2="8.11336" y2="7.92295" gradientUnits="userSpaceOnUse">
<stop stop-color="#F6E93D"/>
<stop offset="0.13" stop-color="#F8E330"/>
<stop offset="0.35" stop-color="#F7C730"/>
<stop offset="0.64" stop-color="#F59C2E"/>
<stop offset="0.98" stop-color="#EB5E2C"/>
<stop offset="1" stop-color="#EB5C2C"/>
</linearGradient>
<linearGradient id="paint6_linear_591_816" x1="9.6706" y1="6.07523" x2="9.6706" y2="7.9251" gradientUnits="userSpaceOnUse">
<stop stop-color="#F6E93D"/>
<stop offset="0.13" stop-color="#F8E330"/>
<stop offset="0.35" stop-color="#F7C730"/>
<stop offset="0.64" stop-color="#F59C2E"/>
<stop offset="0.98" stop-color="#EB5E2C"/>
<stop offset="1" stop-color="#EB5C2C"/>
</linearGradient>
<linearGradient id="paint7_linear_591_816" x1="4.54382" y1="7.46332" x2="5.13127" y2="5.8488" gradientUnits="userSpaceOnUse">
<stop stop-color="#F6E93D"/>
<stop offset="0.13" stop-color="#F8E330"/>
<stop offset="0.35" stop-color="#F7C730"/>
<stop offset="0.64" stop-color="#F59C2E"/>
<stop offset="0.98" stop-color="#EB5E2C"/>
<stop offset="1" stop-color="#EB5C2C"/>
</linearGradient>
<clipPath id="clip0_591_816">
<rect width="14.2545" height="16" fill="white"/>
</clipPath>
</defs>
</svg>

