<svg width="24" height="24" viewBox="0 0 24 24" fill="none" xmlns="http://www.w3.org/2000/svg">
<path d="M5.00003 8H5.50003C5.77617 8 6.00003 8.22386 6.00003 8.5C6.00003 8.77614 5.77617 9 5.50003 9H3.50003C3.22388 9 3.00003 8.77614 3.00003 8.5C3.00003 8.22386 3.22388 8 3.50003 8H4.00003V5H3.50003C3.22388 5 3.00003 4.77614 3.00003 4.5C3.00003 4.22386 3.22388 4 3.50003 4H4.50003C4.77617 4 5.00003 4.22386 5.00003 4.5V8ZM4.00003 11V11.5C4.00003 11.7761 3.77617 12 3.50003 12C3.22388 12 3.00003 11.7761 3.00003 11.5V10.5C3.00003 10.2239 3.22388 10 3.50003 10H5.50003C5.77617 10 6.00003 10.2239 6.00003 10.5V11.5C6.00003 11.6326 5.94735 11.7598 5.85358 11.8536L4.70713 13H5.50003C5.77617 13 6.00003 13.2239 6.00003 13.5C6.00003 13.7761 5.77617 14 5.50003 14H3.50003C3.05457 14 2.83149 13.4614 3.14647 13.1464L5.00003 11.2929V11H4.00003ZM3.50003 16C3.22388 16 3.00003 15.7761 3.00003 15.5C3.00003 15.2239 3.22388 15 3.50003 15H5.50003C5.77617 15 6.00003 15.2239 6.00003 15.5V16.5C6.00003 16.6326 5.94735 16.7598 5.85358 16.8536L5.70713 17L5.85358 17.1464C5.94735 17.2402 6.00003 17.3674 6.00003 17.5V18.5C6.00003 18.7761 5.77617 19 5.50003 19H3.50003C3.22388 19 3.00003 18.7761 3.00003 18.5C3.00003 18.2239 3.22388 18 3.50003 18H5.00003V17.7071L4.64647 17.3536C4.45121 17.1583 4.45121 16.8417 4.64647 16.6464L5.00003 16.2929V16H3.50003ZM8.50003 17C8.22388 17 8.00003 16.7761 8.00003 16.5C8.00003 16.2239 8.22388 16 8.50003 16H20.5C20.7762 16 21 16.2239 21 16.5C21 16.7761 20.7762 17 20.5 17H8.50003ZM8.50003 12C8.22388 12 8.00003 11.7761 8.00003 11.5C8.00003 11.2239 8.22388 11 8.50003 11H20.5C20.7762 11 21 11.2239 21 11.5C21 11.7761 20.7762 12 20.5 12H8.50003ZM8.50003 7C8.22388 7 8.00003 6.77614 8.00003 6.5C8.00003 6.22386 8.22388 6 8.50003 6H20.5C20.7762 6 21 6.22386 21 6.5C21 6.77614 20.7762 7 20.5 7H8.50003Z" fill="white"/>
</svg>
