<svg width="18" height="15" viewBox="0 0 18 15" fill="none" xmlns="http://www.w3.org/2000/svg">
<path d="M2 4H2.5C2.77614 4 3 4.22386 3 4.5C3 4.77614 2.77614 5 2.5 5H0.499995C0.223853 5 -4.76954e-06 4.77614 -4.76954e-06 4.5C-4.76954e-06 4.22386 0.223853 4 0.499995 4H0.999995V1H0.499995C0.223853 1 -4.76954e-06 0.776142 -4.76954e-06 0.5C-4.76954e-06 0.223858 0.223853 0 0.499995 0H1.5C1.77614 0 2 0.223858 2 0.5V4ZM0.999995 7V7.5C0.999995 7.77614 0.776138 8 0.499995 8C0.223853 8 -4.76954e-06 7.77614 -4.76954e-06 7.5V6.5C-4.76954e-06 6.22386 0.223853 6 0.499995 6H2.5C2.77614 6 3 6.22386 3 6.5V7.5C3 7.63261 2.94732 7.75979 2.85355 7.85355L1.7071 9H2.5C2.77614 9 3 9.22386 3 9.5C3 9.77614 2.77614 10 2.5 10H0.499995C0.0545428 10 -0.168541 9.46143 0.146442 9.14645L2 7.29289V7H0.999995ZM0.499995 12C0.223853 12 -4.76954e-06 11.7761 -4.76954e-06 11.5C-4.76954e-06 11.2239 0.223853 11 0.499995 11H2.5C2.77614 11 3 11.2239 3 11.5V12.5C3 12.6326 2.94732 12.7598 2.85355 12.8536L2.7071 13L2.85355 13.1464C2.94732 13.2402 3 13.3674 3 13.5V14.5C3 14.7761 2.77614 15 2.5 15H0.499995C0.223853 15 -4.76954e-06 14.7761 -4.76954e-06 14.5C-4.76954e-06 14.2239 0.223853 14 0.499995 14H2V13.7071L1.64644 13.3536C1.45118 13.1583 1.45118 12.8417 1.64644 12.6464L2 12.2929V12H0.499995ZM5.5 13C5.22385 13 5 12.7761 5 12.5C5 12.2239 5.22385 12 5.5 12H17.5C17.7761 12 18 12.2239 18 12.5C18 12.7761 17.7761 13 17.5 13H5.5ZM5.5 8C5.22385 8 5 7.77614 5 7.5C5 7.22386 5.22385 7 5.5 7H17.5C17.7761 7 18 7.22386 18 7.5C18 7.77614 17.7761 8 17.5 8H5.5ZM5.5 3C5.22385 3 5 2.77614 5 2.5C5 2.22386 5.22385 2 5.5 2H17.5C17.7761 2 18 2.22386 18 2.5C18 2.77614 17.7761 3 17.5 3H5.5Z" fill="white"/>
</svg>
