<svg width="18" height="17" viewBox="0 0 18 17" fill="none" xmlns="http://www.w3.org/2000/svg">
<path d="M1.70711 14L3.85355 16.1464C4.04882 16.3417 4.04882 16.6583 3.85355 16.8536C3.65829 17.0488 3.34171 17.0488 3.14645 16.8536L0.146447 13.8536C-0.0488154 13.6583 -0.0488154 13.3417 0.146447 13.1464L3.14645 10.1464C3.34171 9.95118 3.65829 9.95118 3.85355 10.1464C4.04882 10.3417 4.04882 10.6583 3.85355 10.8536L1.70711 13H15.5C16.3284 13 17 12.3284 17 11.5V8.5C17 8.22386 17.2239 8 17.5 8C17.7761 8 18 8.22386 18 8.5V11.5C18 12.8807 16.8807 14 15.5 14H1.70711ZM16.2929 3L14.1464 0.853553C13.9512 0.658291 13.9512 0.341709 14.1464 0.146447C14.3417 -0.0488155 14.6583 -0.0488155 14.8536 0.146447L17.8536 3.14645C18.0488 3.34171 18.0488 3.65829 17.8536 3.85355L14.8536 6.85355C14.6583 7.04882 14.3417 7.04882 14.1464 6.85355C13.9512 6.65829 13.9512 6.34171 14.1464 6.14645L16.2929 4H2.5C1.67157 4 1 4.67157 1 5.5V8.5C1 8.77614 0.776142 9 0.5 9C0.223858 9 0 8.77614 0 8.5V5.5C0 4.11929 1.11929 3 2.5 3H16.2929Z" fill="white"/>
</svg>
