<svg width="24" height="24" viewBox="0 0 24 24" fill="none" xmlns="http://www.w3.org/2000/svg">
<path d="M4.70711 18L6.85355 20.1464C7.04882 20.3417 7.04882 20.6583 6.85355 20.8536C6.65829 21.0488 6.34171 21.0488 6.14645 20.8536L3.14645 17.8536C2.95118 17.6583 2.95118 17.3417 3.14645 17.1464L6.14645 14.1464C6.34171 13.9512 6.65829 13.9512 6.85355 14.1464C7.04882 14.3417 7.04882 14.6583 6.85355 14.8536L4.70711 17H18.5C19.3284 17 20 16.3284 20 15.5V12.5C20 12.2239 20.2239 12 20.5 12C20.7761 12 21 12.2239 21 12.5V15.5C21 16.8807 19.8807 18 18.5 18H4.70711ZM19.2929 7L17.1464 4.85355C16.9512 4.65829 16.9512 4.34171 17.1464 4.14645C17.3417 3.95118 17.6583 3.95118 17.8536 4.14645L20.8536 7.14645C21.0488 7.34171 21.0488 7.65829 20.8536 7.85355L17.8536 10.8536C17.6583 11.0488 17.3417 11.0488 17.1464 10.8536C16.9512 10.6583 16.9512 10.3417 17.1464 10.1464L19.2929 8H5.5C4.67157 8 4 8.67157 4 9.5V12.5C4 12.7761 3.77614 13 3.5 13C3.22386 13 3 12.7761 3 12.5V9.5C3 8.11929 4.11929 7 5.5 7H19.2929Z" fill="white"/>
</svg>
