<svg width="24" height="24" viewBox="0 0 24 24" fill="none" xmlns="http://www.w3.org/2000/svg">
<path d="M18.4998 3C19.8805 3 20.9998 4.11929 20.9998 5.5V18.5074C20.9998 19.8881 19.8805 21.0074 18.4998 21.0074L5.49268 21.0082C4.11196 21.0082 2.99268 19.8889 2.99268 18.5081L2.99981 5.49979C3.00039 4.13038 4.10191 3.01852 5.46718 3.00105C5.47437 3.00058 9.81858 3.00024 18.4998 3ZM5.52903 4C4.67163 4.00084 4.00016 4.67203 3.99981 5.50027L3.99268 18.5075C3.99268 19.3366 4.66425 20.0082 5.49264 20.0082L18.4998 20.0074C19.3282 20.0074 19.9998 19.3358 19.9998 18.5074V5.5C19.9998 4.67157 19.3282 4 18.4998 4H5.52903ZM9.89025 14.1877C10.0628 14.4033 10.0278 14.7179 9.81216 14.8904C9.59653 15.0629 9.28188 15.028 9.10938 14.8123L7.10938 12.3123C6.96329 12.1297 6.96329 11.8703 7.10938 11.6877L9.10938 9.18765C9.28188 8.97202 9.59653 8.93706 9.81216 9.10957C10.0278 9.28207 10.0628 9.59672 9.89025 9.81235L8.14012 12L9.89025 14.1877ZM14.1094 9.81235C13.9369 9.59672 13.9718 9.28207 14.1875 9.10957C14.4031 8.93706 14.7177 8.97202 14.8902 9.18765L16.8902 11.6877C17.0363 11.8703 17.0363 12.1297 16.8902 12.3123L14.8902 14.8123C14.7177 15.028 14.4031 15.0629 14.1875 14.8904C13.9718 14.7179 13.9369 14.4033 14.1094 14.1877L15.8595 12L14.1094 9.81235Z" fill="white"/>
</svg>
