<svg width="24" height="24" viewBox="0 0 24 24" fill="none" xmlns="http://www.w3.org/2000/svg">
<path d="M18.5 3C19.8807 3 21 4.11929 21 5.5V18.5074C21 19.8881 19.8807 21.0074 18.5 21.0074L5.49286 21.0082C4.11215 21.0082 2.99286 19.8889 2.99286 18.5081L3 5.49979C3.00057 4.13038 4.1021 3.01852 5.46736 3.00105C5.47455 3.00058 9.81876 3.00024 18.5 3ZM5.52921 4C4.67181 4.00084 4.00034 4.67203 4 5.50027L3.99286 18.5075C3.99286 19.3366 4.66443 20.0082 5.49283 20.0082L18.5 20.0074C19.3284 20.0074 20 19.3358 20 18.5074V5.5C20 4.67157 19.3284 4 18.5 4H5.52921ZM9.89043 14.1877C10.0629 14.4033 10.028 14.7179 9.81234 14.8904C9.59671 15.0629 9.28207 15.028 9.10956 14.8123L7.10956 12.3123C6.96347 12.1297 6.96347 11.8703 7.10956 11.6877L9.10956 9.18765C9.28207 8.97202 9.59671 8.93706 9.81234 9.10957C10.028 9.28207 10.0629 9.59672 9.89043 9.81235L8.14031 12L9.89043 14.1877ZM14.1096 9.81235C13.9371 9.59672 13.972 9.28207 14.1876 9.10957C14.4033 8.93706 14.7179 8.97202 14.8904 9.18765L16.8904 11.6877C17.0365 11.8703 17.0365 12.1297 16.8904 12.3123L14.8904 14.8123C14.7179 15.028 14.4033 15.0629 14.1876 14.8904C13.972 14.7179 13.9371 14.4033 14.1096 14.1877L15.8597 12L14.1096 9.81235Z" fill="white"/>
</svg>
