<svg width="24" height="24" viewBox="0 0 24 24" fill="none" xmlns="http://www.w3.org/2000/svg">
<path d="M4 16V8H3.5C3.22386 8 3 7.77614 3 7.5C3 7.22386 3.22386 7 3.5 7H4V5.5C4 4.11929 5.11929 3 6.5 3H17.5C18.8807 3 20 4.11929 20 5.5V18.5C20 19.8807 18.8807 21 17.5 21H6.5C5.11929 21 4 19.8807 4 18.5V17H3.5C3.22386 17 3 16.7761 3 16.5C3 16.2239 3.22386 16 3.5 16H4ZM5 16H5.5C5.77614 16 6 16.2239 6 16.5C6 16.7761 5.77614 17 5.5 17H5V18.5C5 19.3284 5.67157 20 6.5 20H17.5C18.3284 20 19 19.3284 19 18.5V5.5C19 4.67157 18.3284 4 17.5 4H6.5C5.67157 4 5 4.67157 5 5.5V7H5.5C5.77614 7 6 7.22386 6 7.5C6 7.77614 5.77614 8 5.5 8H5V16ZM8.5 6H15.5C16.3284 6 17 6.67157 17 7.5V9.5C17 10.3284 16.3284 11 15.5 11H8.5C7.67157 11 7 10.3284 7 9.5V7.5C7 6.67157 7.67157 6 8.5 6ZM8.5 7C8.22386 7 8 7.22386 8 7.5V9.5C8 9.77614 8.22386 10 8.5 10H15.5C15.7761 10 16 9.77614 16 9.5V7.5C16 7.22386 15.7761 7 15.5 7H8.5Z" fill="white"/>
</svg>
