<svg width="17" height="18" viewBox="0 0 17 18" fill="none" xmlns="http://www.w3.org/2000/svg">
<path d="M1 13V5H0.5C0.223858 5 0 4.77614 0 4.5C0 4.22386 0.223858 4 0.5 4H1V2.5C1 1.11929 2.11929 0 3.5 0H14.5C15.8807 0 17 1.11929 17 2.5V15.5C17 16.8807 15.8807 18 14.5 18H3.5C2.11929 18 1 16.8807 1 15.5V14H0.5C0.223858 14 0 13.7761 0 13.5C0 13.2239 0.223858 13 0.5 13H1ZM2 13H2.5C2.77614 13 3 13.2239 3 13.5C3 13.7761 2.77614 14 2.5 14H2V15.5C2 16.3284 2.67157 17 3.5 17H14.5C15.3284 17 16 16.3284 16 15.5V2.5C16 1.67157 15.3284 1 14.5 1H3.5C2.67157 1 2 1.67157 2 2.5V4H2.5C2.77614 4 3 4.22386 3 4.5C3 4.77614 2.77614 5 2.5 5H2V13ZM5.5 3H12.5C13.3284 3 14 3.67157 14 4.5V6.5C14 7.32843 13.3284 8 12.5 8H5.5C4.67157 8 4 7.32843 4 6.5V4.5C4 3.67157 4.67157 3 5.5 3ZM5.5 4C5.22386 4 5 4.22386 5 4.5V6.5C5 6.77614 5.22386 7 5.5 7H12.5C12.7761 7 13 6.77614 13 6.5V4.5C13 4.22386 12.7761 4 12.5 4H5.5Z" fill="white"/>
</svg>
