<svg width="24" height="24" viewBox="0 0 24 24" fill="none" xmlns="http://www.w3.org/2000/svg">
<path d="M13.7071 5H14.5C16.9853 5 19 7.01472 19 9.5V10.0354C20.6961 10.2781 22 11.7368 22 13.5C22 15.433 20.433 17 18.5 17C16.567 17 15 15.433 15 13.5C15 11.7368 16.3039 10.2781 18 10.0354V9.5C18 7.567 16.433 6 14.5 6H13.7071L14.8536 7.14645C15.0488 7.34171 15.0488 7.65829 14.8536 7.85355C14.6583 8.04882 14.3417 8.04882 14.1464 7.85355L12.1464 5.85355C11.9512 5.65829 11.9512 5.34171 12.1464 5.14645L14.1464 3.14645C14.3417 2.95118 14.6583 2.95118 14.8536 3.14645C15.0488 3.34171 15.0488 3.65829 14.8536 3.85355L13.7071 5ZM6 15.0354V8.96456C4.30385 8.72194 3 7.26324 3 5.5C3 3.567 4.567 2 6.5 2C8.433 2 10 3.567 10 5.5C10 7.26324 8.69615 8.72194 7 8.96456V15.0354C8.69615 15.2781 10 16.7368 10 18.5C10 20.433 8.433 22 6.5 22C4.567 22 3 20.433 3 18.5C3 16.7368 4.30385 15.2781 6 15.0354ZM4 18.5C4 19.8807 5.11929 21 6.5 21C7.88071 21 9 19.8807 9 18.5C9 17.1193 7.88071 16 6.5 16C5.11929 16 4 17.1193 4 18.5ZM4 5.5C4 6.88071 5.11929 8 6.5 8C7.88071 8 9 6.88071 9 5.5C9 4.11929 7.88071 3 6.5 3C5.11929 3 4 4.11929 4 5.5ZM18.5 16C19.8807 16 21 14.8807 21 13.5C21 12.1193 19.8807 11 18.5 11C17.1193 11 16 12.1193 16 13.5C16 14.8807 17.1193 16 18.5 16Z" fill="white"/>
</svg>
