<svg width="19" height="20" viewBox="0 0 19 20" fill="none" xmlns="http://www.w3.org/2000/svg">
<path d="M10.7071 3H11.5C13.9853 3 16 5.01472 16 7.5V8.03544C17.6961 8.27806 19 9.73676 19 11.5C19 13.433 17.433 15 15.5 15C13.567 15 12 13.433 12 11.5C12 9.73676 13.3039 8.27806 15 8.03544V7.5C15 5.567 13.433 4 11.5 4H10.7071L11.8536 5.14645C12.0488 5.34171 12.0488 5.65829 11.8536 5.85355C11.6583 6.04882 11.3417 6.04882 11.1464 5.85355L9.14645 3.85355C8.95118 3.65829 8.95118 3.34171 9.14645 3.14645L11.1464 1.14645C11.3417 0.951185 11.6583 0.951185 11.8536 1.14645C12.0488 1.34171 12.0488 1.65829 11.8536 1.85355L10.7071 3ZM3 13.0354V6.96456C1.30385 6.72194 0 5.26324 0 3.5C0 1.567 1.567 0 3.5 0C5.433 0 7 1.567 7 3.5C7 5.26324 5.69615 6.72194 4 6.96456V13.0354C5.69615 13.2781 7 14.7368 7 16.5C7 18.433 5.433 20 3.5 20C1.567 20 0 18.433 0 16.5C0 14.7368 1.30385 13.2781 3 13.0354ZM1 16.5C1 17.8807 2.11929 19 3.5 19C4.88071 19 6 17.8807 6 16.5C6 15.1193 4.88071 14 3.5 14C2.11929 14 1 15.1193 1 16.5ZM1 3.5C1 4.88071 2.11929 6 3.5 6C4.88071 6 6 4.88071 6 3.5C6 2.11929 4.88071 1 3.5 1C2.11929 1 1 2.11929 1 3.5ZM15.5 14C16.8807 14 18 12.8807 18 11.5C18 10.1193 16.8807 9 15.5 9C14.1193 9 13 10.1193 13 11.5C13 12.8807 14.1193 14 15.5 14Z" fill="white"/>
</svg>
