<svg width="24" height="24" viewBox="0 0 24 24" fill="none" xmlns="http://www.w3.org/2000/svg">
<path d="M12 2C6.48 2 2 6.48 2 12C2 17.52 6.48 22 12 22C17.52 22 22 17.52 22 12C22 6.48 17.52 2 12 2ZM12 21C7.03 21 3 16.97 3 12C3 7.03 7.03 3 12 3C16.97 3 21 7.03 21 12C21 16.97 16.97 21 12 21ZM12 6.5C9.79 6.5 8 8.29 8 10.5H9.5C9.5 9.12 10.62 8 12 8C13.38 8 14.5 9.12 14.5 10.5C14.5 11.88 13.38 13 12 13C11.45 13 11 13.45 11 14V15.5H13V14.38C14.72 13.81 16 12.29 16 10.5C16 8.29 14.21 6.5 12 6.5ZM11 17H13V19H11V17Z" fill="none"/>
</svg>
