<svg width="24" height="24" viewBox="0 0 24 24" fill="none" xmlns="http://www.w3.org/2000/svg">
<path d="M17 18.2456C18.8732 16.7456 20 14.469 20 11.9999C20 7.76599 16.7007 4.27166 12.4955 4.01496C12.2198 3.99813 12.01 3.76105 12.0268 3.48542C12.0437 3.20979 12.2808 2.99999 12.5564 3.01681C17.2885 3.30568 21 7.23659 21 11.9999C21 14.7628 19.7449 17.3126 17.6578 18.9999H20.5C20.7761 18.9999 21 19.2237 21 19.4999C21 19.776 20.7761 19.9999 20.5 19.9999H16.5C16.2239 19.9999 16 19.776 16 19.4999V15.4999C16 15.2237 16.2239 14.9999 16.5 14.9999C16.7761 14.9999 17 15.2237 17 15.4999V18.2456ZM7 5.75414C5.12699 7.25396 4 9.53059 4 11.9999C4 16.2473 7.31965 19.7483 11.5408 19.9869C11.8165 20.0025 12.0274 20.2387 12.0118 20.5144C11.9962 20.7901 11.7601 21.0009 11.4844 20.9853C6.73441 20.7168 3 16.7783 3 11.9999C3 9.23675 4.25527 6.68698 6.34223 4.99988H3.5C3.22386 4.99988 3 4.77602 3 4.49988C3 4.22374 3.22386 3.99988 3.5 3.99988H7.5C7.77614 3.99988 8 4.22374 8 4.49988V8.49988C8 8.77602 7.77614 8.99988 7.5 8.99988C7.22386 8.99988 7 8.77602 7 8.49988V5.75414Z" fill="white"/>
</svg>
