<svg width="18" height="18" viewBox="0 0 18 18" fill="none" xmlns="http://www.w3.org/2000/svg">
<path d="M14 15.2456C15.8732 13.7456 17 11.469 17 8.99988C17 4.76599 13.7007 1.27166 9.49546 1.01496C9.21983 0.998131 9.01003 0.76105 9.02685 0.485421C9.04367 0.209792 9.28076 -1.07028e-05 9.55639 0.0168144C14.2885 0.305676 18 4.23659 18 8.99988C18 11.7628 16.7449 14.3126 14.6578 15.9999H17.5C17.7761 15.9999 18 16.2237 18 16.4999C18 16.776 17.7761 16.9999 17.5 16.9999H13.5C13.2239 16.9999 13 16.776 13 16.4999V12.4999C13 12.2237 13.2239 11.9999 13.5 11.9999C13.7761 11.9999 14 12.2237 14 12.4999V15.2456ZM4 2.75414C2.12699 4.25396 1 6.53059 1 8.99988C1 13.2473 4.31965 16.7483 8.54082 16.9869C8.81653 17.0025 9.02739 17.2387 9.01181 17.5144C8.99622 17.7901 8.76008 18.0009 8.48438 17.9853C3.73441 17.7168 0 13.7783 0 8.99988C0 6.23675 1.25527 3.68698 3.34223 1.99988H0.5C0.223858 1.99988 0 1.77602 0 1.49988C0 1.22374 0.223858 0.999881 0.5 0.999881H4.5C4.77614 0.999881 5 1.22374 5 1.49988V5.49988C5 5.77602 4.77614 5.99988 4.5 5.99988C4.22386 5.99988 4 5.77602 4 5.49988V2.75414Z" fill="white"/>
</svg>
