<svg width="24" height="24" viewBox="0 0 24 24" fill="none" xmlns="http://www.w3.org/2000/svg">
<path d="M17 18.2454C18.8732 16.7454 20 14.4688 20 11.9996C20 7.76575 16.7007 4.27141 12.4955 4.01471C12.2198 3.99789 12.01 3.76081 12.0268 3.48518C12.0437 3.20955 12.2808 2.99975 12.5564 3.01657C17.2885 3.30543 21 7.23635 21 11.9996C21 14.7626 19.7449 17.3124 17.6578 18.9996H20.5C20.7761 18.9996 21 19.2235 21 19.4996C21 19.7758 20.7761 19.9996 20.5 19.9996H16.5C16.2239 19.9996 16 19.7758 16 19.4996V15.4996C16 15.2235 16.2239 14.9996 16.5 14.9996C16.7761 14.9996 17 15.2235 17 15.4996V18.2454ZM7 5.7539C5.12699 7.25372 4 9.53034 4 11.9996C4 16.247 7.31965 19.7481 11.5408 19.9867C11.8165 20.0023 12.0274 20.2384 12.0118 20.5141C11.9962 20.7898 11.7601 21.0007 11.4844 20.9851C6.73441 20.7166 3 16.7781 3 11.9996C3 9.23651 4.25527 6.68674 6.34223 4.99964H3.5C3.22386 4.99964 3 4.77578 3 4.49964C3 4.22349 3.22386 3.99964 3.5 3.99964H7.5C7.77614 3.99964 8 4.22349 8 4.49964V8.49964C8 8.77578 7.77614 8.99964 7.5 8.99964C7.22386 8.99964 7 8.77578 7 8.49964V5.7539Z" fill="white"/>
</svg>
