<svg width="16" height="16" viewBox="0 0 16 16" fill="none" xmlns="http://www.w3.org/2000/svg">
<path d="M11.3329 10.8615L13.9024 13.431C14.0325 13.5611 14.0325 13.7722 13.9024 13.9024C13.7722 14.0325 13.5611 14.0325 13.431 13.9024L10.8615 11.3329C9.92131 12.163 8.68614 12.6667 7.33333 12.6667C4.38781 12.6667 2 10.2789 2 7.33333C2 4.38781 4.38781 2 7.33333 2C10.2789 2 12.6667 4.38781 12.6667 7.33333C12.6667 8.68614 12.163 9.92131 11.3329 10.8615ZM7.33333 12C9.91066 12 12 9.91066 12 7.33333C12 4.756 9.91066 2.66667 7.33333 2.66667C4.756 2.66667 2.66667 4.756 2.66667 7.33333C2.66667 9.91066 4.756 12 7.33333 12Z" fill="black"/>
</svg>
