<svg width="18" height="18" viewBox="0 0 18 18" fill="none" xmlns="http://www.w3.org/2000/svg">
<path d="M11.2929 9H0.5C0.223858 9 0 8.77614 0 8.5C0 8.22386 0.223858 8 0.5 8H11.2929L8.14645 4.85355C7.95118 4.65829 7.95118 4.34171 8.14645 4.14645C8.34171 3.95118 8.65829 3.95118 8.85355 4.14645L12.8536 8.14645C13.0488 8.34171 13.0488 8.65829 12.8536 8.85355L8.85355 12.8536C8.65829 13.0488 8.34171 13.0488 8.14645 12.8536C7.95118 12.6583 7.95118 12.3417 8.14645 12.1464L11.2929 9ZM7.5 1C7.22386 1 7 0.776142 7 0.5C7 0.223858 7.22386 0 7.5 0H15.5C16.8807 0 18 1.11929 18 2.5V15.5C18 16.8807 16.8807 18 15.5 18H7.5C7.22386 18 7 17.7761 7 17.5C7 17.2239 7.22386 17 7.5 17H15.5C16.3284 17 17 16.3284 17 15.5V2.5C17 1.67157 16.3284 1 15.5 1H7.5Z" fill="white"/>
</svg>
