<svg xmlns="http://www.w3.org/2000/svg" width="24" height="24" viewBox="0 0 24 24">
  <path d="M17,19 L17,16.5 C17,16.2238576 17.2238576,16 17.5,16 C17.7761424,16 18,16.2238576 18,16.5 L18,19 L20.5,19 C20.7761424,19 21,19.2238576 21,19.5 C21,19.7761424 20.7761424,20 20.5,20 L18,20 L18,22.5 C18,22.7761424 17.7761424,23 17.5,23 C17.2238576,23 17,22.7761424 17,22.5 L17,20 L14.5,20 C14.2238576,20 14,19.7761424 14,19.5 C14,19.2238576 14.2238576,19 14.5,19 L17,19 Z M14.0425135,13.5651442 C13.4188979,13.8445863 12.7275984,14 12,14 C11.2738711,14 10.5838946,13.8452135 9.96126583,13.5668358 L5.87929558,15.4222768 C5.34380416,15.665682 5,16.1996113 5,16.7878265 L5,17.5 C5,18.3284271 5.67157288,19 6.5,19 L11.5,19 C11.7761424,19 12,19.2238576 12,19.5 C12,19.7761424 11.7761424,20 11.5,20 L6.5,20 C5.11928813,20 4,18.8807119 4,17.5 L4,16.7878265 C4,15.8074678 4.57300693,14.9175857 5.46549264,14.5119103 L8.92215823,12.9406987 C7.75209123,12.0255364 7,10.6005984 7,9 C7,6.23857625 9.23857625,4 12,4 C14.7614237,4 17,6.23857625 17,9 C17,10.5929224 16.2551051,12.0118652 15.0946468,12.927497 L17.6966094,14.0402775 C17.9505071,14.1488619 18.0683068,14.4427117 17.9597225,14.6966094 C17.8511381,14.9505071 17.5572883,15.0683068 17.3033906,14.9597225 L14.0425135,13.5651442 L14.0425135,13.5651442 Z M12,13 C14.209139,13 16,11.209139 16,9 C16,6.790861 14.209139,5 12,5 C9.790861,5 8,6.790861 8,9 C8,11.209139 9.790861,13 12,13 Z"/>
</svg>
