<svg width="24" height="24" viewBox="0 0 24 24" fill="none" xmlns="http://www.w3.org/2000/svg">
<path d="M4.70711 12L7.85355 15.1464C8.04882 15.3417 8.04882 15.6583 7.85355 15.8536C7.65829 16.0488 7.34171 16.0488 7.14645 15.8536L3.14645 11.8536C2.95118 11.6583 2.95118 11.3417 3.14645 11.1464L7.14645 7.14645C7.34171 6.95118 7.65829 6.95118 7.85355 7.14645C8.04882 7.34171 8.04882 7.65829 7.85355 7.85355L4.70711 11H15.5C15.7761 11 16 11.2239 16 11.5C16 11.7761 15.7761 12 15.5 12H4.70711ZM10.5 4C10.2239 4 10 3.77614 10 3.5C10 3.22386 10.2239 3 10.5 3H18.5C19.8807 3 21 4.11929 21 5.5V18.5C21 19.8807 19.8807 21 18.5 21H10.5C10.2239 21 10 20.7761 10 20.5C10 20.2239 10.2239 20 10.5 20H18.5C19.3284 20 20 19.3284 20 18.5V5.5C20 4.67157 19.3284 4 18.5 4H10.5Z" fill="white"/>
</svg>
