<svg width="24" height="24" viewBox="0 0 24 24" fill="none" xmlns="http://www.w3.org/2000/svg">
<path d="M14.2929 12H3.5C3.22386 12 3 11.7761 3 11.5C3 11.2239 3.22386 11 3.5 11H14.2929L11.1464 7.85355C10.9512 7.65829 10.9512 7.34171 11.1464 7.14645C11.3417 6.95118 11.6583 6.95118 11.8536 7.14645L15.8536 11.1464C16.0488 11.3417 16.0488 11.6583 15.8536 11.8536L11.8536 15.8536C11.6583 16.0488 11.3417 16.0488 11.1464 15.8536C10.9512 15.6583 10.9512 15.3417 11.1464 15.1464L14.2929 12ZM10.5 4C10.2239 4 10 3.77614 10 3.5C10 3.22386 10.2239 3 10.5 3H18.5C19.8807 3 21 4.11929 21 5.5V18.5C21 19.8807 19.8807 21 18.5 21H10.5C10.2239 21 10 20.7761 10 20.5C10 20.2239 10.2239 20 10.5 20H18.5C19.3284 20 20 19.3284 20 18.5V5.5C20 4.67157 19.3284 4 18.5 4H10.5Z" fill="white"/>
</svg>
