<svg width="24" height="24" viewBox="0 0 24 24" fill="none" xmlns="http://www.w3.org/2000/svg">
<path d="M12.95 17C12.7184 18.1411 11.7095 19 10.5 19C9.29052 19 8.28164 18.1411 8.05001 17H3.5C3.22386 17 3 16.7761 3 16.5C3 16.2239 3.22386 16 3.5 16H8.05001C8.28164 14.8589 9.29052 14 10.5 14C11.7095 14 12.7184 14.8589 12.95 16H20.5C20.7761 16 21 16.2239 21 16.5C21 16.7761 20.7761 17 20.5 17H12.95ZM18.95 12C18.7184 13.1411 17.7095 14 16.5 14C15.2905 14 14.2816 13.1411 14.05 12H3.5C3.22386 12 3 11.7761 3 11.5C3 11.2239 3.22386 11 3.5 11H14.05C14.2816 9.85888 15.2905 9 16.5 9C17.7095 9 18.7184 9.85888 18.95 11H20.5C20.7761 11 21 11.2239 21 11.5C21 11.7761 20.7761 12 20.5 12H18.95ZM9.94999 7C9.71836 8.14112 8.70948 9 7.5 9C6.29052 9 5.28164 8.14112 5.05001 7H3.5C3.22386 7 3 6.77614 3 6.5C3 6.22386 3.22386 6 3.5 6H5.05001C5.28164 4.85888 6.29052 4 7.5 4C8.70948 4 9.71836 4.85888 9.94999 6H20.5C20.7761 6 21 6.22386 21 6.5C21 6.77614 20.7761 7 20.5 7H9.94999ZM7.5 8C8.32843 8 9 7.32843 9 6.5C9 5.67157 8.32843 5 7.5 5C6.67157 5 6 5.67157 6 6.5C6 7.32843 6.67157 8 7.5 8ZM16.5 13C17.3284 13 18 12.3284 18 11.5C18 10.6716 17.3284 10 16.5 10C15.6716 10 15 10.6716 15 11.5C15 12.3284 15.6716 13 16.5 13ZM10.5 18C11.3284 18 12 17.3284 12 16.5C12 15.6716 11.3284 15 10.5 15C9.67157 15 9 15.6716 9 16.5C9 17.3284 9.67157 18 10.5 18Z" fill="white"/>
</svg>
