<svg width="18" height="15" viewBox="0 0 18 15" fill="none" xmlns="http://www.w3.org/2000/svg">
<path d="M9.94999 13C9.71836 14.1411 8.70948 15 7.5 15C6.29052 15 5.28164 14.1411 5.05001 13H0.5C0.223858 13 0 12.7761 0 12.5C0 12.2239 0.223858 12 0.5 12H5.05001C5.28164 10.8589 6.29052 10 7.5 10C8.70948 10 9.71836 10.8589 9.94999 12H17.5C17.7761 12 18 12.2239 18 12.5C18 12.7761 17.7761 13 17.5 13H9.94999ZM15.95 8C15.7184 9.14112 14.7095 10 13.5 10C12.2905 10 11.2816 9.14112 11.05 8H0.5C0.223858 8 0 7.77614 0 7.5C0 7.22386 0.223858 7 0.5 7H11.05C11.2816 5.85888 12.2905 5 13.5 5C14.7095 5 15.7184 5.85888 15.95 7H17.5C17.7761 7 18 7.22386 18 7.5C18 7.77614 17.7761 8 17.5 8H15.95ZM6.94999 3C6.71836 4.14112 5.70948 5 4.5 5C3.29052 5 2.28164 4.14112 2.05001 3H0.5C0.223858 3 0 2.77614 0 2.5C0 2.22386 0.223858 2 0.5 2H2.05001C2.28164 0.85888 3.29052 0 4.5 0C5.70948 0 6.71836 0.85888 6.94999 2H17.5C17.7761 2 18 2.22386 18 2.5C18 2.77614 17.7761 3 17.5 3H6.94999ZM4.5 4C5.32843 4 6 3.32843 6 2.5C6 1.67157 5.32843 1 4.5 1C3.67157 1 3 1.67157 3 2.5C3 3.32843 3.67157 4 4.5 4ZM13.5 9C14.3284 9 15 8.32843 15 7.5C15 6.67157 14.3284 6 13.5 6C12.6716 6 12 6.67157 12 7.5C12 8.32843 12.6716 9 13.5 9ZM7.5 14C8.32843 14 9 13.3284 9 12.5C9 11.6716 8.32843 11 7.5 11C6.67157 11 6 11.6716 6 12.5C6 13.3284 6.67157 14 7.5 14Z" fill="white"/>
</svg>
