<svg width="23" height="22" viewBox="0 0 23 22" fill="none" xmlns="http://www.w3.org/2000/svg">
<path d="M6.99999 9V6.5C6.99999 6.22386 7.22385 6 7.49999 6H9.99999V2.5C9.99999 1.67157 9.32842 1 8.49999 1H3.49999C2.67156 1 1.99999 1.67157 1.99999 2.5V7.5C1.99999 8.32843 2.67156 9 3.49999 9H6.99999ZM11 6.47202C11.0084 6.60477 10.9641 6.74295 10.8535 6.85355L7.85354 9.85355C7.74293 9.96416 7.60476 10.0084 7.47201 10H3.49999C2.11928 10 0.999988 8.88071 0.999988 7.5V2.5C0.999988 1.11929 2.11928 0 3.49999 0H8.49999C9.8807 0 11 1.11929 11 2.5V6.47202ZM7.99999 7V8.29289L9.29288 7H7.99999ZM15.4969 0H20.5C21.8807 0 23 1.11929 23 2.5V7.5C23 8.88071 21.8807 10 20.5 10H15.4892C14.1085 10 12.9892 8.88071 12.9892 7.49961L12.9969 2.49615C12.999 1.11694 14.1177 0 15.4969 0ZM15.4969 1C14.6694 1 13.9982 1.67016 13.9969 2.49769L13.9892 7.4973C13.9892 8.32843 14.6608 9 15.4892 9H20.5C21.3284 9 22 8.32843 22 7.5V2.5C22 1.67157 21.3284 1 20.5 1H15.4969ZM15.4969 12H20.5C21.8807 12 23 13.1193 23 14.5V19.5C23 20.8807 21.8807 22 20.5 22H15.4892C14.1085 22 12.9892 20.8807 12.9892 19.4996L12.9969 14.4961C12.999 13.1169 14.1177 12 15.4969 12ZM15.4969 13C14.6694 13 13.9982 13.6702 13.9969 14.4977L13.9892 19.4973C13.9892 20.3284 14.6608 21 15.4892 21H20.5C21.3284 21 22 20.3284 22 19.5V14.5C22 13.6716 21.3284 13 20.5 13H15.4969ZM3.49691 12H8.49999C9.8807 12 11 13.1193 11 14.5V19.5C11 20.8807 9.8807 22 8.49999 22H3.4892C2.10848 22 0.989197 20.8807 0.989197 19.4996L0.99691 14.4961C0.999036 13.1169 2.1177 12 3.49691 12ZM3.49691 13C2.66938 13 1.99818 13.6702 1.99691 14.4977L1.9892 19.4973C1.9892 20.3284 2.66077 21 3.4892 21H8.49999C9.32842 21 9.99999 20.3284 9.99999 19.5V14.5C9.99999 13.6716 9.32842 13 8.49999 13H3.49691ZM3.49999 4C3.22385 4 2.99999 3.77614 2.99999 3.5C2.99999 3.22386 3.22385 3 3.49999 3H8.49999C8.77613 3 8.99999 3.22386 8.99999 3.5C8.99999 3.77614 8.77613 4 8.49999 4H3.49999ZM3.49999 6C3.22385 6 2.99999 5.77614 2.99999 5.5C2.99999 5.22386 3.22385 5 3.49999 5H5.49999C5.77613 5 5.99999 5.22386 5.99999 5.5C5.99999 5.77614 5.77613 6 5.49999 6H3.49999ZM15.5 4C15.2238 4 15 3.77614 15 3.5C15 3.22386 15.2238 3 15.5 3H20.5C20.7761 3 21 3.22386 21 3.5C21 3.77614 20.7761 4 20.5 4H15.5ZM15.5 6C15.2238 6 15 5.77614 15 5.5C15 5.22386 15.2238 5 15.5 5H18.5C18.7761 5 19 5.22386 19 5.5C19 5.77614 18.7761 6 18.5 6H15.5ZM15.5 16C15.2238 16 15 15.7761 15 15.5C15 15.2239 15.2238 15 15.5 15H20.5C20.7761 15 21 15.2239 21 15.5C21 15.7761 20.7761 16 20.5 16H15.5ZM3.49999 16C3.22385 16 2.99999 15.7761 2.99999 15.5C2.99999 15.2239 3.22385 15 3.49999 15H8.49999C8.77613 15 8.99999 15.2239 8.99999 15.5C8.99999 15.7761 8.77613 16 8.49999 16H3.49999ZM3.49999 18C3.22385 18 2.99999 17.7761 2.99999 17.5C2.99999 17.2239 3.22385 17 3.49999 17H6.49999C6.77613 17 6.99999 17.2239 6.99999 17.5C6.99999 17.7761 6.77613 18 6.49999 18H3.49999Z" fill="white"/>
</svg>
