<svg width="24" height="24" viewBox="0 0 24 24" fill="none" xmlns="http://www.w3.org/2000/svg">
<path d="M7.00005 10V7.5C7.00005 7.22386 7.22391 7 7.50005 7H10V3.5C10 2.67157 9.32848 2 8.50005 2H3.50005C2.67162 2 2.00005 2.67157 2.00005 3.5V8.5C2.00005 9.32843 2.67162 10 3.50005 10H7.00005ZM11 7.47202C11.0085 7.60477 10.9642 7.74295 10.8536 7.85355L7.8536 10.8536C7.743 10.9642 7.60482 11.0084 7.47207 11H3.50005C2.11934 11 1.00005 9.88071 1.00005 8.5V3.5C1.00005 2.11929 2.11934 1 3.50005 1H8.50005C9.88076 1 11 2.11929 11 3.5V7.47202ZM8.00005 8V9.29289L9.29294 8H8.00005ZM15.497 1H20.5C21.8808 1 23 2.11929 23 3.5V8.5C23 9.88071 21.8808 11 20.5 11H15.4893C14.1085 11 12.9893 9.88071 12.9893 8.49961L12.997 3.49615C12.9991 2.11694 14.1178 1 15.497 1ZM15.497 2C14.6694 2 13.9982 2.67016 13.997 3.49769L13.9893 8.4973C13.9893 9.32843 14.6608 10 15.4893 10H20.5C21.3285 10 22 9.32843 22 8.5V3.5C22 2.67157 21.3285 2 20.5 2H15.497ZM15.497 13H20.5C21.8808 13 23 14.1193 23 15.5V20.5C23 21.8807 21.8808 23 20.5 23H15.4893C14.1085 23 12.9893 21.8807 12.9893 20.4996L12.997 15.4961C12.9991 14.1169 14.1178 13 15.497 13ZM15.497 14C14.6694 14 13.9982 14.6702 13.997 15.4977L13.9893 20.4973C13.9893 21.3284 14.6608 22 15.4893 22H20.5C21.3285 22 22 21.3284 22 20.5V15.5C22 14.6716 21.3285 14 20.5 14H15.497ZM3.49697 13H8.50005C9.88076 13 11 14.1193 11 15.5V20.5C11 21.8807 9.88076 23 8.50005 23H3.48926C2.10855 23 0.989258 21.8807 0.989258 20.4996L0.996971 15.4961C0.999097 14.1169 2.11776 13 3.49697 13ZM3.49697 14C2.66944 14 1.99825 14.6702 1.99697 15.4977L1.98926 20.4973C1.98926 21.3284 2.66083 22 3.48926 22H8.50005C9.32848 22 10 21.3284 10 20.5V15.5C10 14.6716 9.32848 14 8.50005 14H3.49697ZM3.50005 5C3.22391 5 3.00005 4.77614 3.00005 4.5C3.00005 4.22386 3.22391 4 3.50005 4H8.50005C8.77619 4 9.00005 4.22386 9.00005 4.5C9.00005 4.77614 8.77619 5 8.50005 5H3.50005ZM3.50005 7C3.22391 7 3.00005 6.77614 3.00005 6.5C3.00005 6.22386 3.22391 6 3.50005 6H5.50005C5.77619 6 6.00005 6.22386 6.00005 6.5C6.00005 6.77614 5.77619 7 5.50005 7H3.50005ZM15.5 5C15.2239 5 15 4.77614 15 4.5C15 4.22386 15.2239 4 15.5 4H20.5C20.7762 4 21 4.22386 21 4.5C21 4.77614 20.7762 5 20.5 5H15.5ZM15.5 7C15.2239 7 15 6.77614 15 6.5C15 6.22386 15.2239 6 15.5 6H18.5C18.7762 6 19 6.22386 19 6.5C19 6.77614 18.7762 7 18.5 7H15.5ZM15.5 17C15.2239 17 15 16.7761 15 16.5C15 16.2239 15.2239 16 15.5 16H20.5C20.7762 16 21 16.2239 21 16.5C21 16.7761 20.7762 17 20.5 17H15.5ZM3.50005 17C3.22391 17 3.00005 16.7761 3.00005 16.5C3.00005 16.2239 3.22391 16 3.50005 16H8.50005C8.77619 16 9.00005 16.2239 9.00005 16.5C9.00005 16.7761 8.77619 17 8.50005 17H3.50005ZM3.50005 19C3.22391 19 3.00005 18.7761 3.00005 18.5C3.00005 18.2239 3.22391 18 3.50005 18H6.50005C6.77619 18 7.00005 18.2239 7.00005 18.5C7.00005 18.7761 6.77619 19 6.50005 19H3.50005Z" fill="white"/>
</svg>
