<svg width="16" height="13" viewBox="0 0 16 13" fill="none" xmlns="http://www.w3.org/2000/svg">
<path d="M0.5 1C0.223858 1 0 0.776142 0 0.5C0 0.223858 0.223858 0 0.5 0H15.5C15.7761 0 16 0.223858 16 0.5C16 0.776142 15.7761 1 15.5 1H0.5ZM0.5 9C0.223858 9 0 8.77614 0 8.5C0 8.22386 0.223858 8 0.5 8H15.5C15.7761 8 16 8.22386 16 8.5C16 8.77614 15.7761 9 15.5 9H0.5ZM6.5 5C6.22386 5 6 4.77614 6 4.5C6 4.22386 6.22386 4 6.5 4H15.5C15.7761 4 16 4.22386 16 4.5C16 4.77614 15.7761 5 15.5 5H6.5ZM6.5 13C6.22386 13 6 12.7761 6 12.5C6 12.2239 6.22386 12 6.5 12H15.5C15.7761 12 16 12.2239 16 12.5C16 12.7761 15.7761 13 15.5 13H6.5Z" fill="white"/>
</svg>
