<svg width="24" height="24" viewBox="0 0 24 24" fill="none" xmlns="http://www.w3.org/2000/svg">
<path d="M4 14.5V18.5C4 19.3284 4.67157 20 5.5 20H9.5C10.3284 20 11 19.3284 11 18.5V14.5C11 13.6716 10.3284 13 9.5 13H5.5C4.67157 13 4 13.6716 4 14.5ZM16.2929 16L15.1464 14.8536C14.9512 14.6583 14.9512 14.3417 15.1464 14.1464C15.3417 13.9512 15.6583 13.9512 15.8536 14.1464L17.8536 16.1464C18.0488 16.3417 18.0488 16.6583 17.8536 16.8536L15.8536 18.8536C15.6583 19.0488 15.3417 19.0488 15.1464 18.8536C14.9512 18.6583 14.9512 18.3417 15.1464 18.1464L16.2929 17H13.5C13.2239 17 13 16.7761 13 16.5C13 16.2239 13.2239 16 13.5 16H16.2929ZM8 7.70711V10.5C8 10.7761 7.77614 11 7.5 11C7.22386 11 7 10.7761 7 10.5V7.70711L5.85355 8.85355C5.65829 9.04882 5.34171 9.04882 5.14645 8.85355C4.95118 8.65829 4.95118 8.34171 5.14645 8.14645L7.14645 6.14645C7.34171 5.95118 7.65829 5.95118 7.85355 6.14645L9.85355 8.14645C10.0488 8.34171 10.0488 8.65829 9.85355 8.85355C9.65829 9.04882 9.34171 9.04882 9.14645 8.85355L8 7.70711ZM3 14.5C3 13.1193 4.11929 12 5.5 12H9.5C10.8807 12 12 13.1193 12 14.5V18.5C12 19.8807 10.8807 21 9.5 21H5.5C4.11929 21 3 19.8807 3 18.5V14.5ZM4 5.5C4 5.77614 3.77614 6 3.5 6C3.22386 6 3 5.77614 3 5.5C3 4.11929 4.11929 3 5.5 3C5.77614 3 6 3.22386 6 3.5C6 3.77614 5.77614 4 5.5 4C4.67157 4 4 4.67157 4 5.5ZM8.5 4C8.22386 4 8 3.77614 8 3.5C8 3.22386 8.22386 3 8.5 3H10.5C10.7761 3 11 3.22386 11 3.5C11 3.77614 10.7761 4 10.5 4H8.5ZM13.5 4C13.2239 4 13 3.77614 13 3.5C13 3.22386 13.2239 3 13.5 3H15.5C15.7761 3 16 3.22386 16 3.5C16 3.77614 15.7761 4 15.5 4H13.5ZM18.5 4C18.2239 4 18 3.77614 18 3.5C18 3.22386 18.2239 3 18.5 3C19.8807 3 21 4.11929 21 5.5C21 5.77614 20.7761 6 20.5 6C20.2239 6 20 5.77614 20 5.5C20 4.67157 19.3284 4 18.5 4ZM20 8.5C20 8.22386 20.2239 8 20.5 8C20.7761 8 21 8.22386 21 8.5V10.5C21 10.7761 20.7761 11 20.5 11C20.2239 11 20 10.7761 20 10.5V8.5ZM20 13.5C20 13.2239 20.2239 13 20.5 13C20.7761 13 21 13.2239 21 13.5V15.5C21 15.7761 20.7761 16 20.5 16C20.2239 16 20 15.7761 20 15.5V13.5ZM20 18.5C20 18.2239 20.2239 18 20.5 18C20.7761 18 21 18.2239 21 18.5C21 19.8807 19.8807 21 18.5 21C18.2239 21 18 20.7761 18 20.5C18 20.2239 18.2239 20 18.5 20C19.3284 20 20 19.3284 20 18.5ZM15.5 20C15.7761 20 16 20.2239 16 20.5C16 20.7761 15.7761 21 15.5 21H13.5C13.2239 21 13 20.7761 13 20.5C13 20.2239 13.2239 20 13.5 20H15.5ZM3 8.5C3 8.22386 3.22386 8 3.5 8C3.77614 8 4 8.22386 4 8.5V10.5C4 10.7761 3.77614 11 3.5 11C3.22386 11 3 10.7761 3 10.5V8.5Z" fill="white"/>
</svg>
