<svg width="18" height="18" viewBox="0 0 18 18" fill="none" xmlns="http://www.w3.org/2000/svg">
<path d="M1 11.5V15.5C1 16.3284 1.67157 17 2.5 17H6.5C7.32843 17 8 16.3284 8 15.5V11.5C8 10.6716 7.32843 10 6.5 10H2.5C1.67157 10 1 10.6716 1 11.5ZM13.2929 13L12.1464 11.8536C11.9512 11.6583 11.9512 11.3417 12.1464 11.1464C12.3417 10.9512 12.6583 10.9512 12.8536 11.1464L14.8536 13.1464C15.0488 13.3417 15.0488 13.6583 14.8536 13.8536L12.8536 15.8536C12.6583 16.0488 12.3417 16.0488 12.1464 15.8536C11.9512 15.6583 11.9512 15.3417 12.1464 15.1464L13.2929 14H10.5C10.2239 14 10 13.7761 10 13.5C10 13.2239 10.2239 13 10.5 13H13.2929ZM5 4.70711V7.5C5 7.77614 4.77614 8 4.5 8C4.22386 8 4 7.77614 4 7.5V4.70711L2.85355 5.85355C2.65829 6.04882 2.34171 6.04882 2.14645 5.85355C1.95118 5.65829 1.95118 5.34171 2.14645 5.14645L4.14645 3.14645C4.34171 2.95118 4.65829 2.95118 4.85355 3.14645L6.85355 5.14645C7.04882 5.34171 7.04882 5.65829 6.85355 5.85355C6.65829 6.04882 6.34171 6.04882 6.14645 5.85355L5 4.70711ZM0 11.5C0 10.1193 1.11929 9 2.5 9H6.5C7.88071 9 9 10.1193 9 11.5V15.5C9 16.8807 7.88071 18 6.5 18H2.5C1.11929 18 0 16.8807 0 15.5V11.5ZM1 2.5C1 2.77614 0.776142 3 0.5 3C0.223858 3 0 2.77614 0 2.5C0 1.11929 1.11929 0 2.5 0C2.77614 0 3 0.223858 3 0.5C3 0.776142 2.77614 1 2.5 1C1.67157 1 1 1.67157 1 2.5ZM5.5 1C5.22386 1 5 0.776142 5 0.5C5 0.223858 5.22386 0 5.5 0H7.5C7.77614 0 8 0.223858 8 0.5C8 0.776142 7.77614 1 7.5 1H5.5ZM10.5 1C10.2239 1 10 0.776142 10 0.5C10 0.223858 10.2239 0 10.5 0H12.5C12.7761 0 13 0.223858 13 0.5C13 0.776142 12.7761 1 12.5 1H10.5ZM15.5 1C15.2239 1 15 0.776142 15 0.5C15 0.223858 15.2239 0 15.5 0C16.8807 0 18 1.11929 18 2.5C18 2.77614 17.7761 3 17.5 3C17.2239 3 17 2.77614 17 2.5C17 1.67157 16.3284 1 15.5 1ZM17 5.5C17 5.22386 17.2239 5 17.5 5C17.7761 5 18 5.22386 18 5.5V7.5C18 7.77614 17.7761 8 17.5 8C17.2239 8 17 7.77614 17 7.5V5.5ZM17 10.5C17 10.2239 17.2239 10 17.5 10C17.7761 10 18 10.2239 18 10.5V12.5C18 12.7761 17.7761 13 17.5 13C17.2239 13 17 12.7761 17 12.5V10.5ZM17 15.5C17 15.2239 17.2239 15 17.5 15C17.7761 15 18 15.2239 18 15.5C18 16.8807 16.8807 18 15.5 18C15.2239 18 15 17.7761 15 17.5C15 17.2239 15.2239 17 15.5 17C16.3284 17 17 16.3284 17 15.5ZM12.5 17C12.7761 17 13 17.2239 13 17.5C13 17.7761 12.7761 18 12.5 18H10.5C10.2239 18 10 17.7761 10 17.5C10 17.2239 10.2239 17 10.5 17H12.5ZM0 5.5C0 5.22386 0.223858 5 0.5 5C0.776142 5 1 5.22386 1 5.5V7.5C1 7.77614 0.776142 8 0.5 8C0.223858 8 0 7.77614 0 7.5V5.5Z" fill="white"/>
</svg>
