<svg width="24" height="24" viewBox="0 0 24 24" fill="none" xmlns="http://www.w3.org/2000/svg">
<path d="M16 9.29289L17.1464 8.14645C17.3417 7.95118 17.6583 7.95118 17.8536 8.14645C18.0488 8.34171 18.0488 8.65829 17.8536 8.85355L15.8536 10.8536C15.6583 11.0488 15.3417 11.0488 15.1464 10.8536L13.1464 8.85355C12.9512 8.65829 12.9512 8.34171 13.1464 8.14645C13.3417 7.95118 13.6583 7.95118 13.8536 8.14645L15 9.29289V3.5C15 3.22386 15.2239 3 15.5 3C15.7761 3 16 3.22386 16 3.5V9.29289ZM4 15H9.5C9.77614 15 10 15.2239 10 15.5C10 16.3284 10.6716 17 11.5 17H12.5C13.3284 17 14 16.3284 14 15.5C14 15.2239 14.2239 15 14.5 15H20V8.5C20 8.22386 20.2239 8 20.5 8C20.7761 8 21 8.22386 21 8.5V18.5C21 19.8807 19.8807 21 18.5 21H5.5C4.11929 21 3 19.8807 3 18.5V5.5C3 4.11929 4.11929 3 5.5 3H10.5C10.7761 3 11 3.22386 11 3.5C11 3.77614 10.7761 4 10.5 4H5.5C4.67157 4 4 4.67157 4 5.5V15ZM4 16V18.5C4 19.3284 4.67157 20 5.5 20H18.5C19.3284 20 20 19.3284 20 18.5V16H14.95C14.7184 17.1411 13.7095 18 12.5 18H11.5C10.2905 18 9.28164 17.1411 9.05001 16H4Z" fill="white"/>
</svg>
