<svg width="20" height="20" viewBox="0 0 20 20" fill="none" xmlns="http://www.w3.org/2000/svg">
<path d="M16.5347 14.5118L13.0777 12.9408C14.2477 12.0258 14.9997 10.6008 14.9997 8.99976C14.9997 6.23876 12.7617 3.99976 9.99969 3.99976C7.2387 3.99976 4.99969 6.23876 4.99969 8.99976C4.99969 10.6008 5.75169 12.0258 6.92269 12.9408L3.46569 14.5118C3.13669 14.6618 2.84769 14.8788 2.61569 15.1458C1.59669 13.6868 0.999695 11.9128 0.999695 9.99976C0.999695 5.02976 5.0297 0.999756 9.99969 0.999756C14.9707 0.999756 18.9997 5.02976 18.9997 9.99976C18.9997 11.9128 18.4027 13.6868 17.3847 15.1458C17.1527 14.8788 16.8637 14.6618 16.5347 14.5118ZM5.99969 8.99976C5.99969 6.79076 7.79069 4.99976 9.99969 4.99976C12.2087 4.99976 13.9997 6.79076 13.9997 8.99976C13.9997 11.2088 12.2087 12.9998 9.99969 12.9998C7.79069 12.9998 5.99969 11.2088 5.99969 8.99976ZM9.99969 18.9998C7.31269 18.9998 4.90169 17.8228 3.25169 15.9558C3.40569 15.7248 3.6217 15.5388 3.87969 15.4228L7.9617 13.5668C8.5837 13.8448 9.27369 13.9998 9.99969 13.9998C10.7257 13.9998 11.4157 13.8448 12.0387 13.5668L16.1207 15.4228C16.3777 15.5388 16.5937 15.7248 16.7477 15.9558C15.0987 17.8228 12.6867 18.9998 9.99969 18.9998ZM9.99969 -0.000244141C4.4767 -0.000244141 -0.000305176 4.47676 -0.000305176 9.99976C-0.000305176 15.5228 4.4767 19.9998 9.99969 19.9998C15.5227 19.9998 19.9997 15.5228 19.9997 9.99976C19.9997 4.47676 15.5227 -0.000244141 9.99969 -0.000244141Z" fill="white"/>
</svg>
