<svg width="24" height="24" viewBox="0 0 24 24" fill="none" xmlns="http://www.w3.org/2000/svg">
<path d="M18.5345 16.512L15.0775 14.941C16.2475 14.026 16.9995 12.601 16.9995 11C16.9995 8.239 14.7615 6 11.9995 6C9.23851 6 6.99951 8.239 6.99951 11C6.99951 12.601 7.75151 14.026 8.92251 14.941L5.46551 16.512C5.13651 16.662 4.84751 16.879 4.61551 17.146C3.59651 15.687 2.99951 13.913 2.99951 12C2.99951 7.03 7.02951 3 11.9995 3C16.9705 3 20.9995 7.03 20.9995 12C20.9995 13.913 20.4025 15.687 19.3845 17.146C19.1525 16.879 18.8635 16.662 18.5345 16.512ZM7.99951 11C7.99951 8.791 9.79051 7 11.9995 7C14.2085 7 15.9995 8.791 15.9995 11C15.9995 13.209 14.2085 15 11.9995 15C9.79051 15 7.99951 13.209 7.99951 11ZM11.9995 21C9.31251 21 6.90151 19.823 5.25151 17.956C5.40551 17.725 5.62151 17.539 5.87951 17.423L9.96151 15.567C10.5835 15.845 11.2735 16 11.9995 16C12.7255 16 13.4155 15.845 14.0385 15.567L18.1205 17.423C18.3775 17.539 18.5935 17.725 18.7475 17.956C17.0985 19.823 14.6865 21 11.9995 21ZM11.9995 2C6.47651 2 1.99951 6.477 1.99951 12C1.99951 17.523 6.47651 22 11.9995 22C17.5225 22 21.9995 17.523 21.9995 12C21.9995 6.477 17.5225 2 11.9995 2Z" fill="white"/>
</svg>
