<svg width="24" height="24" viewBox="0 0 24 24" fill="none" xmlns="http://www.w3.org/2000/svg">
<path d="M21 8.5C20.582 8.186 20.063 8 19.5 8H18.95C18.718 6.859 17.709 6 16.5 6H7.5C6.291 6 5.282 6.859 5.05 8H4.5C3.671 8 3 7.329 3 6.5V5.5C3 4.671 3.671 4 4.5 4H19.5C20.329 4 21 4.671 21 5.5V8.5ZM6.085 8C6.291 7.417 6.847 7 7.5 7H16.5C17.153 7 17.709 7.417 17.915 8H6.085ZM21 12H17.5C16.119 12 15 13.119 15 14.5C15 15.881 16.119 17 17.5 17H21V18.5C21 19.328 20.329 20 19.5 20H4.5C3.671 20 3 19.328 3 18.5V8.5C3.418 8.814 3.937 9 4.5 9H19.5C20.329 9 21 9.672 21 10.5V12ZM21 16H17.5C16.671 16 16 15.328 16 14.5C16 13.672 16.671 13 17.5 13H21V16ZM19.5 3H4.5C3.119 3 2 4.119 2 5.5V18.5C2 19.881 3.119 21 4.5 21H19.5C20.881 21 22 19.881 22 18.5V5.5C22 4.119 20.881 3 19.5 3Z" fill="white"/>
</svg>
