<svg width="20" height="18" viewBox="0 0 20 18" fill="none" xmlns="http://www.w3.org/2000/svg">
<path d="M19 5.5C18.582 5.186 18.063 5 17.5 5H16.95C16.718 3.859 15.709 3 14.5 3H5.5C4.291 3 3.282 3.859 3.05 5H2.5C1.671 5 1 4.329 1 3.5V2.5C1 1.671 1.671 1 2.5 1H17.5C18.329 1 19 1.671 19 2.5V5.5ZM4.085 5C4.291 4.417 4.847 4 5.5 4H14.5C15.153 4 15.709 4.417 15.915 5H4.085ZM19 9H15.5C14.119 9 13 10.119 13 11.5C13 12.881 14.119 14 15.5 14H19V15.5C19 16.328 18.329 17 17.5 17H2.5C1.671 17 1 16.328 1 15.5V5.5C1.418 5.814 1.937 6 2.5 6H17.5C18.329 6 19 6.672 19 7.5V9ZM19 13H15.5C14.671 13 14 12.328 14 11.5C14 10.672 14.671 10 15.5 10H19V13ZM17.5 0H2.5C1.119 0 0 1.119 0 2.5V15.5C0 16.881 1.119 18 2.5 18H17.5C18.881 18 20 16.881 20 15.5V2.5C20 1.119 18.881 0 17.5 0Z" fill="white"/>
</svg>
