<svg width="20" height="18" viewBox="0 0 20 18" fill="none" xmlns="http://www.w3.org/2000/svg">
<path d="M12.2929 9H4.5C4.22386 9 4 8.77614 4 8.5C4 8.22386 4.22386 8 4.5 8H12.2929L10.1464 5.85355C9.95118 5.65829 9.95118 5.34171 10.1464 5.14645C10.3417 4.95118 10.6583 4.95118 10.8536 5.14645L13.8536 8.14645C14.0488 8.34171 14.0488 8.65829 13.8536 8.85355L10.8536 11.8536C10.6583 12.0488 10.3417 12.0488 10.1464 11.8536C9.95118 11.6583 9.95118 11.3417 10.1464 11.1464L12.2929 9ZM5.5 17C5.77614 17 6 17.2239 6 17.5C6 17.7761 5.77614 18 5.5 18H2.5C1.11929 18 0 16.8807 0 15.5V2.5C0 1.11929 1.11929 0 2.5 0H5.5C5.77614 0 6 0.223858 6 0.5C6 0.776142 5.77614 1 5.5 1H2.5C1.67157 1 1 1.67157 1 2.5V15.5C1 16.3284 1.67157 17 2.5 17H5.5ZM20 2.5C20 2.77614 19.7761 3 19.5 3C19.2239 3 19 2.77614 19 2.5C19 1.67157 18.3284 1 17.5 1C17.2239 1 17 0.776142 17 0.5C17 0.223858 17.2239 0 17.5 0C18.8807 0 20 1.11929 20 2.5ZM17.5 18C17.2239 18 17 17.7761 17 17.5C17 17.2239 17.2239 17 17.5 17C18.3284 17 19 16.3284 19 15.5C19 15.2239 19.2239 15 19.5 15C19.7761 15 20 15.2239 20 15.5C20 16.8807 18.8807 18 17.5 18ZM9.5 0C9.77614 0 10 0.223858 10 0.5C10 0.776142 9.77614 1 9.5 1C8.67157 1 8 1.67157 8 2.5C8 2.77614 7.77614 3 7.5 3C7.22386 3 7 2.77614 7 2.5C7 1.11929 8.11929 0 9.5 0ZM7 15.5C7 15.2239 7.22386 15 7.5 15C7.77614 15 8 15.2239 8 15.5C8 16.3284 8.67157 17 9.5 17C9.77614 17 10 17.2239 10 17.5C10 17.7761 9.77614 18 9.5 18C8.11929 18 7 16.8807 7 15.5ZM19 5.5C19 5.22386 19.2239 5 19.5 5C19.7761 5 20 5.22386 20 5.5V7.5C20 7.77614 19.7761 8 19.5 8C19.2239 8 19 7.77614 19 7.5V5.5ZM14.5 0C14.7761 0 15 0.223858 15 0.5C15 0.776142 14.7761 1 14.5 1H12.5C12.2239 1 12 0.776142 12 0.5C12 0.223858 12.2239 0 12.5 0H14.5ZM14.5 17C14.7761 17 15 17.2239 15 17.5C15 17.7761 14.7761 18 14.5 18H12.5C12.2239 18 12 17.7761 12 17.5C12 17.2239 12.2239 17 12.5 17H14.5ZM19 10.5C19 10.2239 19.2239 10 19.5 10C19.7761 10 20 10.2239 20 10.5V12.5C20 12.7761 19.7761 13 19.5 13C19.2239 13 19 12.7761 19 12.5V10.5Z" fill="white"/>
</svg>
