<svg width="24" height="24" viewBox="0 0 24 24" fill="none" xmlns="http://www.w3.org/2000/svg">
<path d="M14.2929 12H6.5C6.22386 12 6 11.7761 6 11.5C6 11.2239 6.22386 11 6.5 11H14.2929L12.1464 8.85355C11.9512 8.65829 11.9512 8.34171 12.1464 8.14645C12.3417 7.95118 12.6583 7.95118 12.8536 8.14645L15.8536 11.1464C16.0488 11.3417 16.0488 11.6583 15.8536 11.8536L12.8536 14.8536C12.6583 15.0488 12.3417 15.0488 12.1464 14.8536C11.9512 14.6583 11.9512 14.3417 12.1464 14.1464L14.2929 12ZM4.5 3C4.77614 3 5 3.22386 5 3.5C5 3.77614 4.77614 4 4.5 4C3.67157 4 3 4.67157 3 5.5C3 5.77614 2.77614 6 2.5 6C2.22386 6 2 5.77614 2 5.5C2 4.11929 3.11929 3 4.5 3ZM2 8.5C2 8.22386 2.22386 8 2.5 8C2.77614 8 3 8.22386 3 8.5V10.5C3 10.7761 2.77614 11 2.5 11C2.22386 11 2 10.7761 2 10.5V8.5ZM2 13.5C2 13.2239 2.22386 13 2.5 13C2.77614 13 3 13.2239 3 13.5V15.5C3 15.7761 2.77614 16 2.5 16C2.22386 16 2 15.7761 2 15.5V13.5ZM2 18.5C2 18.2239 2.22386 18 2.5 18C2.77614 18 3 18.2239 3 18.5C3 19.3284 3.67157 20 4.5 20C4.77614 20 5 20.2239 5 20.5C5 20.7761 4.77614 21 4.5 21C3.11929 21 2 19.8807 2 18.5ZM10 5.5C10 5.77614 9.77614 6 9.5 6C9.22386 6 9 5.77614 9 5.5C9 4.11929 10.1193 3 11.5 3H19.5C20.8807 3 22 4.11929 22 5.5V18.5C22 19.8807 20.8807 21 19.5 21H11.5C10.1193 21 9 19.8807 9 18.5C9 18.2239 9.22386 18 9.5 18C9.77614 18 10 18.2239 10 18.5C10 19.3284 10.6716 20 11.5 20H19.5C20.3284 20 21 19.3284 21 18.5V5.5C21 4.67157 20.3284 4 19.5 4H11.5C10.6716 4 10 4.67157 10 5.5ZM8.5 20C8.77614 20 9 20.2239 9 20.5C9 20.7761 8.77614 21 8.5 21H6.5C6.22386 21 6 20.7761 6 20.5C6 20.2239 6.22386 20 6.5 20H8.5ZM8.5 3C8.77614 3 9 3.22386 9 3.5C9 3.77614 8.77614 4 8.5 4H6.5C6.22386 4 6 3.77614 6 3.5C6 3.22386 6.22386 3 6.5 3H8.5Z" fill="white"/>
</svg>
