<svg width="205" height="25" viewBox="0 0 205 25" fill="none" xmlns="http://www.w3.org/2000/svg">
<path d="M14.1916 19.9717H4.28097V14.5851H14.1916C16.6682 14.5851 17.934 15.7949 17.934 17.3618C17.934 18.8723 16.6958 19.9717 14.1916 19.9717ZM13.8694 11.7003H4.28097V7.16407H13.8694C16.4794 7.16407 17.5036 8.10373 17.5036 9.39107C17.5036 10.5727 16.3183 11.7003 13.8694 11.7003ZM16.4012 13.0745C20.5763 12.9359 22.0838 10.8194 22.0838 8.51249C22.0815 5.98244 20.116 3.89404 15.3217 3.89404H0V23.1877H15.7797C19.7109 23.1877 22.6477 21.5127 22.6477 17.9115C22.6477 15.3556 21.0044 13.185 16.3989 13.0745H16.4012ZM26.7837 3.89404V23.1877H31.0716V3.89404H26.7837ZM49.1092 7.54933H58.5457V3.89404H35.4124V7.54933H44.8374V23.1877H49.1184L49.1092 7.54933ZM62.8911 3.89404V23.1877H67.1721V15.6704H77.2186V12.4967H67.1721V7.22045H83.4927V3.89404H62.8911ZM88.112 3.89404V23.1877H92.393V3.89404H88.112ZM101.052 8.59236L115.241 23.1853H120.088V3.89404H115.862V17.8011L102.235 3.89404H96.796V23.1877H101.052V8.59236ZM124.493 3.89404V23.1877H145.438V19.9458H128.774V14.6414H138.766V11.6463H128.774V7.22045H145.443V3.89404H124.493ZM175.036 3.89404H169.381L162.166 10.6831L155.001 3.89404H149.265L159.337 13.4034L148.888 23.1877H154.545L162.111 16.0697L169.651 23.1877H175.405L164.939 13.3752L175.036 3.89404Z" fill="white"/>
<path d="M204.63 0.135122C204.545 0.0975351 195.716 -1.12872 186.989 4.59852C181.571 8.16219 180.853 13.375 181.101 16.8517C193.795 15.4187 204.343 0.550922 204.63 0.135122ZM181.962 20.7137C183.053 22.6729 191.3 27.1152 198.6 20.9886C205.901 14.862 205.289 3.71524 204.63 0.135122C204.4 0.654285 196.43 18.4703 181.962 20.7114" fill="#98E35D"/>
<path d="M204.63 0.135059C204.545 0.0998218 195.716 -1.12879 186.989 4.59846C181.571 8.16213 180.853 13.3749 181.101 16.8493C193.795 15.4187 204.343 0.55086 204.63 0.135059Z" fill="#16B157"/>
</svg>
