<svg width="205" height="24" viewBox="0 0 205 24" fill="none" xmlns="http://www.w3.org/2000/svg">
  <path class="bfx-logo-text" d="M14.9763 19.8166H5.14254V14.4717H14.9763C17.4336 14.4717 18.6897 15.6722 18.6897 17.2269C18.6897 18.7257 17.4611 19.8166 14.9763 19.8166ZM14.6566 11.6093H5.14254V7.10831H14.6566C17.2464 7.10831 18.2626 8.04068 18.2626 9.31804C18.2626 10.4905 17.0865 11.6093 14.6566 11.6093ZM17.1687 12.9729C21.3114 12.8354 22.8073 10.7352 22.8073 8.44627C22.805 5.93585 20.8547 3.86365 16.0977 3.86365H0.894775V23.0076H16.5521C20.4528 23.0076 23.3668 21.3457 23.3668 17.7723C23.3668 15.2363 21.7362 13.0825 17.1665 12.9729H17.1687ZM27.4707 3.86365V23.0076H31.7253V3.86365H27.4707ZM49.623 7.49058H58.9864V3.86365H36.0325V7.49058H45.3844V23.0076H49.6322L49.623 7.49058ZM63.2981 3.86365V23.0076H67.5458V15.5486H77.5144V12.3995H67.5458V7.16425H83.7399V3.86365H63.2981ZM88.3233 3.86365V23.0076H92.5711V3.86365H88.3233ZM101.163 8.52552L115.242 23.0053H120.051V3.86365H115.858V17.6628L102.336 3.86365H96.9399V23.0076H101.163V8.52552ZM124.422 3.86365V23.0076H145.205V19.7909H128.67V14.5277H138.584V11.5557H128.67V7.16425H145.209V3.86365H124.422ZM174.574 3.86365H168.962L161.803 10.6L154.694 3.86365H149.002L158.996 13.2993L148.628 23.0076H154.241L161.748 15.9449L169.23 23.0076H174.939L164.555 13.2713L174.574 3.86365Z" fill="#1B262D"/>
  <path class="bfx-logo-leaf-bottom" d="M203.938 0.134074C203.853 0.0967785 195.093 -1.11997 186.433 4.56285C181.057 8.09888 180.345 13.2712 180.591 16.721C193.186 15.2991 203.653 0.546649 203.938 0.134074ZM181.445 20.5531C182.528 22.4971 190.711 26.9049 197.955 20.8258C205.199 14.7467 204.591 3.68642 203.938 0.134074C203.71 0.64921 195.801 18.327 181.445 20.5507" fill="#98E35D"/>
  <path class="bfx-logo-leaf-top" d="M203.938 0.134141C203.853 0.0991771 195.093 -1.1199 186.433 4.56292C181.057 8.09895 180.345 13.2713 180.591 16.7187C193.186 15.2992 203.653 0.546717 203.938 0.134141Z" fill="#16B157"/>
</svg>
