<?xml version="1.0" encoding="utf-8"?>
<!-- Generator: Adobe Illustrator 16.0.0, SVG Export Plug-In . SVG Version: 6.00 Build 0)  -->
<!DOCTYPE svg PUBLIC "-//W3C//DTD SVG 1.1//EN" "http://www.w3.org/Graphics/SVG/1.1/DTD/svg11.dtd">
<svg version="1.1" id="Layer_1" xmlns:sketch="http://www.bohemiancoding.com/sketch/ns"
	 xmlns="http://www.w3.org/2000/svg" xmlns:xlink="http://www.w3.org/1999/xlink" x="0px" y="0px" width="138px" height="30px"
	 viewBox="0 0 138 30" enable-background="new 0 0 138 30" xml:space="preserve">
<title>logo</title>
<desc>Created with Sketch.</desc>
<g>
	<g>
		<path fill="#FFFFFF" d="M20.747,16.351H8.978v8.774h13.755v4.015H4V0.489h18.596v4.014H8.978v7.91h11.769V16.351z"/>
		<path fill="#FFFFFF" d="M46.454,17.038H34.922V29.14h-4.978V0.489h18.202v4.014H34.922v8.521h11.532V17.038z"/>
		<path fill="#FFFFFF" d="M66.837,10.839l6.021-10.35h5.746l-8.658,14.208l8.855,14.442h-5.805l-6.159-10.509L60.658,29.14h-5.785
			l8.874-14.442L55.07,0.489h5.747L66.837,10.839z"/>
	</g>
	<polygon fill="#74778F" points="126.805,15.093 121.879,8.071 126.9,1.647 135.568,14.971 120.99,28.53 119.654,28.53 	"/>
	<polygon fill="#74778F" points="98.826,15.093 103.752,8.071 98.734,1.647 90.064,14.971 105.977,28.53 107.312,28.53 	"/>
	<polygon fill="#9B9EBD" points="101.984,15.093 113.047,0 124.109,15.094 117.352,28.53 109.49,28.53 	"/>
</g>
</svg>
