<svg width="210" height="26" viewBox="0 0 210 26" fill="none" xmlns="http://www.w3.org/2000/svg">
<g clip-path="url(#clip0)">
<path d="M14.715 20.7459H4.60218V15.2427H14.715C17.2421 15.2427 18.5338 16.4787 18.5338 18.0795C18.5338 19.6227 17.2702 20.7459 14.715 20.7459ZM14.3862 12.2955H4.60218V7.66111H14.3862C17.0495 7.66111 18.0946 8.62111 18.0946 9.93631C18.0946 11.1435 16.8851 12.2955 14.3862 12.2955ZM16.9696 13.6995C21.2299 13.5579 22.7682 11.3955 22.7682 9.03871C22.7658 6.45391 20.7602 4.32031 15.8682 4.32031H0.233887V24.0315H16.3355C20.3468 24.0315 23.3436 22.3203 23.3436 18.6411C23.3436 16.0299 21.6667 13.8123 16.9673 13.6995H16.9696ZM27.5639 4.32031V24.0315H31.9393V4.32031H27.5639ZM50.3448 8.05471H59.9739V4.32031H36.3686V8.05471H45.9859V24.0315H50.3542L50.3448 8.05471ZM64.4079 4.32031V24.0315H68.7762V16.3515H79.0276V13.1091H68.7762V7.71871H85.4298V4.32031H64.4079ZM90.1433 4.32031V24.0315H94.5116V4.32031H90.1433ZM103.347 9.12031L117.826 24.0291H122.772V4.32031H118.46V18.5283L104.554 4.32031H99.0044V24.0315H103.347V9.12031ZM127.267 4.32031V24.0315H148.639V20.7195H131.635V15.3003H141.83V12.2403H131.635V7.71871H148.643V4.32031H127.267ZM178.841 4.32031H173.07L165.708 11.2563L158.397 4.32031H152.544L162.821 14.0355L152.159 24.0315H157.932L165.651 16.7595L173.345 24.0315H179.217L168.538 14.0067L178.841 4.32031Z" fill="white"/>
<path d="M209.039 0.479843C208.952 0.441443 199.943 -0.811357 191.038 5.03984C185.509 8.68064 184.777 14.0062 185.03 17.5582C197.982 16.0942 208.746 0.904643 209.039 0.479843ZM185.909 21.5038C187.022 23.5054 195.437 28.0438 202.886 21.7846C210.336 15.5254 209.711 4.13744 209.039 0.479843C208.805 1.01024 200.672 19.2118 185.909 21.5014" fill="#8CD867"/>
<path d="M209.039 0.479758C208.952 0.443758 199.943 -0.811441 191.038 5.03976C185.509 8.68056 184.777 14.0062 185.03 17.5558C197.982 16.0942 208.746 0.904558 209.039 0.479758Z" fill="#54B361"/>
</g>
<defs>
<clipPath id="clip0">
<rect width="209.96" height="25.2" fill="white"/>
</clipPath>
</defs>
</svg>
